<svg width="22" height="22" viewBox="0 0 22 22" fill="none" xmlns="http://www.w3.org/2000/svg">
<path fill-rule="evenodd" clip-rule="evenodd" d="M16.1406 4.827C16.141 4.827 16.1413 4.82735 16.1421 4.82807L17.1722 5.85843C17.173 5.85896 17.1731 5.85932 17.1733 5.85985C17.1734 5.86021 17.1734 5.86057 17.1733 5.86093C17.1733 5.86146 17.173 5.86182 17.1722 5.86253L12.0347 11L17.1722 16.1375C17.173 16.1382 17.1731 16.1386 17.1733 16.1391C17.1734 16.1395 17.1734 16.14 17.1733 16.1404C17.1733 16.1407 17.173 16.1411 17.1722 16.1418L16.1419 17.172C16.1413 17.1727 16.141 17.1729 16.1406 17.1731C16.1402 17.1732 16.1398 17.1732 16.1394 17.1731C16.1388 17.1731 16.1385 17.1727 16.1378 17.172L11.0003 12.0345L5.86278 17.172C5.86206 17.1727 5.86171 17.1729 5.86117 17.1731C5.86076 17.1732 5.86033 17.1732 5.85992 17.1731C5.85956 17.1731 5.85921 17.1727 5.85849 17.172L4.82831 16.1416C4.8276 16.1411 4.82742 16.1407 4.82724 16.1404C4.82712 16.14 4.82712 16.1395 4.82724 16.1391C4.82724 16.1386 4.8276 16.1382 4.82831 16.1375L9.96581 11L4.82831 5.86253C4.8276 5.86182 4.82742 5.86146 4.82724 5.86093C4.82712 5.86052 4.82712 5.86008 4.82724 5.85968C4.82724 5.85932 4.8276 5.85896 4.82831 5.85825L5.85867 4.82807C5.85921 4.82735 5.85956 4.82718 5.85992 4.827C5.86033 4.82687 5.86076 4.82687 5.86117 4.827C5.86171 4.827 5.86206 4.82735 5.86278 4.82807L11.0003 9.96557L16.1378 4.82807C16.1385 4.82735 16.1388 4.82718 16.1394 4.827C16.1398 4.82687 16.1402 4.82687 16.1406 4.827Z" fill="#9BA1A8"/>
</svg>
