<svg width="46" height="64" viewBox="0 0 46 64" fill="none" xmlns="http://www.w3.org/2000/svg">
<g clip-path="url(#clip0_1177_2285)">
<path d="M12.2657 23.9166C12.2657 23.9166 12.1362 33.403 22.2918 36.387C22.2918 36.387 27.2145 38.219 32.5865 34.747C34.1333 33.7531 35.4679 32.4622 36.5132 30.949C37.5585 29.4358 38.2937 27.7303 38.6763 25.931C39.1073 23.9871 39.0969 21.9712 38.6459 20.0318C38.6355 19.9876 38.614 19.9468 38.5835 19.9131C38.553 19.8795 38.5144 19.8541 38.4715 19.8394C38.4285 19.8247 38.3825 19.8211 38.3378 19.829C38.2931 19.8369 38.2512 19.8561 38.2158 19.8846C37.6352 20.354 37.1703 20.9507 36.8569 21.6286C36.6402 22.1112 36.5228 22.6325 36.5115 23.1614C36.4811 24.251 36.2989 26.9758 35.2325 28.2574C35.2325 28.2574 33.8063 30.3006 30.0668 30.3582C30.0125 30.3593 29.9591 30.3449 29.9127 30.3168C29.8663 30.2886 29.8288 30.2479 29.8047 30.1992C29.7805 30.1506 29.7707 30.0961 29.7764 30.0421C29.782 29.9881 29.8029 29.9368 29.8365 29.8942C30.3613 29.2517 31.0339 28.7461 31.7967 28.4206C32.3842 28.1545 32.9242 27.794 33.3955 27.3534C33.955 26.8254 34.4778 26.115 34.3771 25.3566C34.371 25.3099 34.3547 25.2651 34.3293 25.2254C34.3039 25.1857 34.27 25.1522 34.2302 25.1271C34.1903 25.1021 34.1454 25.0861 34.0987 25.0804C34.052 25.0747 34.0045 25.0794 33.9598 25.0942C31.5675 25.8172 29.2313 26.7146 26.9699 27.779C26.9699 27.779 25.8187 28.3214 24.9394 30.5566C24.9394 30.5566 23.7387 33.1438 22.9393 34.275C22.8322 34.4272 22.6782 34.54 22.5008 34.5961C22.3235 34.6522 22.1326 34.6484 21.9576 34.5854C19.9698 33.8682 18.1977 32.6549 16.8094 31.0606C15.4211 29.4663 14.4625 27.5438 14.0244 25.475L12.2657 23.9166Z" fill="#A0CCF8"/>
<path d="M6.98926 17.1997L10.7816 15.5725C10.7816 15.5725 18.6349 21.8749 19.4471 28.8525C19.4471 28.8541 15.4533 20.8669 6.98926 17.1997Z" fill="#0E33F3"/>
<path d="M9.96777 11.5069L15.0472 9.13574C15.0472 9.13574 22.9005 19.0973 21.615 29.9357C21.615 29.9389 19.9219 18.6269 9.96777 11.5069Z" fill="#0E33F3"/>
<path d="M14.9834 4.86694C14.9834 4.86694 20.8702 10.9661 22.7664 19.5373C22.7664 19.5373 23.9846 24.5181 23.1725 30.9549C23.1725 30.9549 26.49 25.2621 24.2548 15.5725C24.2548 15.5725 23.8631 12.7277 21.7575 7.78054L31.9739 7.64454C31.9739 7.64454 35.4481 12.9709 34.8181 19.0973C34.8181 19.0973 37.9997 14.4893 33.328 5.33734L14.9834 4.86694Z" fill="#0E33F3"/>
</g>
<path d="M0 52.3149C0 51.7923 0.098 51.3069 0.294 50.8589C0.49 50.4016 0.751333 50.0003 1.078 49.6549C1.414 49.3003 1.792 49.0249 2.212 48.8289C2.64133 48.6329 3.08 48.5349 3.528 48.5349C4.004 48.5349 4.47067 48.6563 4.928 48.8989C5.38533 49.1416 5.796 49.4823 6.16 49.9209C6.53333 50.3596 6.82733 50.8776 7.042 51.4749C7.25667 52.0723 7.364 52.7209 7.364 53.4209C7.364 54.6343 7.18667 55.6656 6.832 56.5149C6.48667 57.3736 5.98267 58.0223 5.32 58.4609C4.65733 58.9089 3.85467 59.1329 2.912 59.1329C2.34267 59.1329 1.84333 59.0769 1.414 58.9649C0.994 58.8529 0.662667 58.7409 0.42 58.6289C0.177333 58.5169 0.056 58.4609 0.056 58.4609L0.658 56.9489H0.798C1.17133 57.1356 1.568 57.2709 1.988 57.3549C2.408 57.4389 2.78133 57.4809 3.108 57.4809C3.54667 57.4809 3.91533 57.4436 4.214 57.3689C4.522 57.3036 4.80667 57.2009 5.068 57.0609L4.48 57.5649C4.71333 57.2849 4.9 56.9629 5.04 56.5989C5.18 56.2443 5.278 55.8289 5.334 55.3529C5.39933 54.8676 5.432 54.3076 5.432 53.6729C5.432 53.2623 5.38533 52.8563 5.292 52.4549C5.19867 52.0443 5.04933 51.6616 4.844 51.3069C4.648 50.9523 4.39133 50.6349 4.074 50.3549C3.75667 50.0749 3.36933 49.8603 2.912 49.7109L3.934 49.6409C3.234 49.8649 2.71133 50.2103 2.366 50.6769C2.03 51.1436 1.862 51.6336 1.862 52.1469C1.862 52.4549 1.946 52.7396 2.114 53.0009C2.282 53.2529 2.52933 53.4536 2.856 53.6029C3.192 53.7523 3.60267 53.8269 4.088 53.8269H5.81L6.02 53.7989H8.68V55.2129L8.4 55.4929H3.878C3.15 55.4929 2.492 55.3763 1.904 55.1429C1.316 54.9096 0.849333 54.5549 0.504 54.0789C0.168 53.6029 0 53.0149 0 52.3149Z" fill="black"/>
<path d="M8.12317 55.4929V54.0789L8.40317 53.7989H10.9232L10.2512 54.1349C10.1765 54.0136 10.1158 53.8223 10.0692 53.5609C10.0318 53.2996 10.0132 52.9963 10.0132 52.6509V48.4089L11.8472 48.1849H11.9732V52.9729C11.9732 53.1596 11.9732 53.3836 11.9732 53.6449C11.9825 53.9063 11.9918 54.1629 12.0012 54.4149C12.0198 54.6669 12.0478 54.8769 12.0852 55.0449V55.1569C11.8052 55.2689 11.4598 55.3529 11.0492 55.4089C10.6385 55.4649 10.1392 55.4929 9.55117 55.4929H8.12317ZM12.1552 46.7849C11.8845 46.7849 11.6558 46.7009 11.4692 46.5329C11.2825 46.3556 11.1892 46.1223 11.1892 45.8329C11.1892 45.5343 11.2825 45.3009 11.4692 45.1329C11.6558 44.9556 11.8845 44.8669 12.1552 44.8669C12.4258 44.8669 12.6498 44.9556 12.8272 45.1329C13.0138 45.3009 13.1072 45.5343 13.1072 45.8329C13.1072 46.1223 13.0138 46.3556 12.8272 46.5329C12.6498 46.7009 12.4258 46.7849 12.1552 46.7849ZM9.91517 47.0649C9.6445 47.0649 9.41584 46.9809 9.22917 46.8129C9.05184 46.6356 8.96317 46.3976 8.96317 46.0989C8.96317 45.8003 9.05184 45.5669 9.22917 45.3989C9.41584 45.2309 9.6445 45.1469 9.91517 45.1469C10.1858 45.1469 10.4098 45.2309 10.5872 45.3989C10.7738 45.5669 10.8672 45.8003 10.8672 46.0989C10.8672 46.3976 10.7738 46.6356 10.5872 46.8129C10.4098 46.9809 10.1858 47.0649 9.91517 47.0649Z" fill="black"/>
<path d="M23.9963 55.4929V53.7989H29.7643V55.2129L29.4843 55.4929H23.9963ZM14.2383 52.8609H14.3643C14.467 52.9076 14.6117 52.9683 14.7983 53.0429C14.985 53.1083 15.1717 53.1689 15.3583 53.2249C15.545 53.2809 15.6897 53.3276 15.7923 53.3649C16.287 53.5049 16.833 53.6029 17.4303 53.6589C18.037 53.7149 18.625 53.7523 19.1943 53.7709C19.773 53.7896 20.263 53.7989 20.6643 53.7989H26.7263L26.0543 54.1349C25.9703 54.0136 25.9097 53.8269 25.8723 53.5749C25.835 53.3136 25.8163 53.0103 25.8163 52.6649V48.4089L27.6363 48.1849H27.7763V52.9729C27.7763 53.1596 27.7763 53.3836 27.7763 53.6449C27.7857 53.9063 27.795 54.1629 27.8043 54.4149C27.823 54.6669 27.851 54.8769 27.8883 55.0449L27.8603 55.1569C27.5803 55.2689 27.2117 55.3529 26.7543 55.4089C26.3063 55.4649 25.7883 55.4929 25.2003 55.4929H20.6643C19.8243 55.4929 18.989 55.4696 18.1583 55.4229C17.3277 55.3763 16.4037 55.2363 15.3863 55.0029C15.209 54.9563 15.0223 54.9049 14.8263 54.8489C14.6303 54.7836 14.4437 54.7229 14.2663 54.6669C14.0983 54.6016 13.9537 54.5409 13.8323 54.4849L14.2383 52.8609ZM20.1183 57.8169C20.1183 57.5183 20.2117 57.2849 20.3983 57.1169C20.585 56.9489 20.8137 56.8649 21.0843 56.8649C21.3457 56.8649 21.5697 56.9489 21.7563 57.1169C21.943 57.2849 22.0363 57.5183 22.0363 57.8169C22.0363 58.1156 21.943 58.3489 21.7563 58.5169C21.579 58.6849 21.3503 58.7689 21.0703 58.7689C20.809 58.7689 20.585 58.6849 20.3983 58.5169C20.2117 58.3489 20.1183 58.1156 20.1183 57.8169Z" fill="black"/>
<path d="M29.7586 53.7989H32.2926L31.6206 54.1349C31.546 54.0136 31.4853 53.8269 31.4386 53.5749C31.4013 53.3136 31.3826 53.0103 31.3826 52.6649V48.4089L33.2166 48.1849H33.3426V54.5969L32.5446 53.7989H35.2606V55.2129L34.9806 55.4929H29.4786V54.0789L29.7586 53.7989ZM31.9146 57.5649C31.9146 57.2663 32.008 57.0329 32.1946 56.8649C32.3813 56.6969 32.6053 56.6129 32.8666 56.6129C33.1373 56.6129 33.366 56.6969 33.5526 56.8649C33.7393 57.0329 33.8326 57.2663 33.8326 57.5649C33.8326 57.8636 33.7393 58.0969 33.5526 58.2649C33.366 58.4329 33.1373 58.5169 32.8666 58.5169C32.6053 58.5169 32.3813 58.4329 32.1946 58.2649C32.008 58.0969 31.9146 57.8636 31.9146 57.5649ZM29.6746 57.8309C29.6746 57.5416 29.768 57.3083 29.9546 57.1309C30.1413 56.9629 30.37 56.8789 30.6406 56.8789C30.902 56.8789 31.126 56.9629 31.3126 57.1309C31.4993 57.3083 31.5926 57.5416 31.5926 57.8309C31.5926 58.1296 31.4993 58.3629 31.3126 58.5309C31.1353 58.7083 30.9066 58.7969 30.6266 58.7969C30.3653 58.7969 30.1413 58.7083 29.9546 58.5309C29.768 58.3629 29.6746 58.1296 29.6746 57.8309Z" fill="black"/>
<path d="M34.9747 55.4929V54.0789L35.2547 53.7989H42.1007L41.6387 54.0229C41.1534 53.7709 40.6261 53.4023 40.0567 52.9169C39.4874 52.4223 38.8901 51.8343 38.2647 51.1529C37.6394 50.4716 36.9954 49.7156 36.3327 48.8849L37.5227 47.4569H37.6487C38.6754 48.6796 39.5761 49.7016 40.3507 50.5229C41.1347 51.3349 41.8114 51.9789 42.3807 52.4549C42.9501 52.9309 43.4307 53.2763 43.8227 53.4909C44.2241 53.6963 44.5507 53.7989 44.8027 53.7989H45.9787V53.9249L45.4187 55.4929H34.9747ZM38.2927 57.8309C38.2927 57.5323 38.3861 57.2989 38.5727 57.1309C38.7594 56.9629 38.9881 56.8789 39.2587 56.8789C39.5201 56.8789 39.7441 56.9629 39.9307 57.1309C40.1174 57.2989 40.2107 57.5323 40.2107 57.8309C40.2107 58.1296 40.1174 58.3629 39.9307 58.5309C39.7534 58.6989 39.5247 58.7829 39.2447 58.7829C38.9834 58.7829 38.7594 58.6989 38.5727 58.5309C38.3861 58.3629 38.2927 58.1296 38.2927 57.8309Z" fill="black"/>
<defs>
<clipPath id="clip0_1177_2285">
<rect width="32" height="32" fill="white" transform="translate(6.98926 4.86694)"/>
</clipPath>
</defs>
</svg>
