<svg width="98" height="64" viewBox="0 0 98 64" fill="none" xmlns="http://www.w3.org/2000/svg">
<path d="M16 32.3149C16 31.7923 16.098 31.3069 16.294 30.8589C16.49 30.4016 16.7513 30.0003 17.078 29.6549C17.414 29.3003 17.792 29.0249 18.212 28.8289C18.6413 28.6329 19.08 28.5349 19.528 28.5349C20.004 28.5349 20.4707 28.6563 20.928 28.8989C21.3853 29.1416 21.796 29.4823 22.16 29.9209C22.5333 30.3596 22.8273 30.8776 23.042 31.4749C23.2567 32.0723 23.364 32.7209 23.364 33.4209C23.364 34.6343 23.1867 35.6656 22.832 36.5149C22.4867 37.3736 21.9827 38.0223 21.32 38.4609C20.6573 38.9089 19.8547 39.1329 18.912 39.1329C18.3427 39.1329 17.8433 39.0769 17.414 38.9649C16.994 38.8529 16.6627 38.7409 16.42 38.6289C16.1773 38.5169 16.056 38.4609 16.056 38.4609L16.658 36.9489H16.798C17.1713 37.1356 17.568 37.2709 17.988 37.3549C18.408 37.4389 18.7813 37.4809 19.108 37.4809C19.5467 37.4809 19.9153 37.4436 20.214 37.3689C20.522 37.3036 20.8067 37.2009 21.068 37.0609L20.48 37.5649C20.7133 37.2849 20.9 36.9629 21.04 36.5989C21.18 36.2443 21.278 35.8289 21.334 35.3529C21.3993 34.8676 21.432 34.3076 21.432 33.6729C21.432 33.2623 21.3853 32.8563 21.292 32.4549C21.1987 32.0443 21.0493 31.6616 20.844 31.3069C20.648 30.9523 20.3913 30.6349 20.074 30.3549C19.7567 30.0749 19.3693 29.8603 18.912 29.7109L19.934 29.6409C19.234 29.8649 18.7113 30.2103 18.366 30.6769C18.03 31.1436 17.862 31.6336 17.862 32.1469C17.862 32.4549 17.946 32.7396 18.114 33.0009C18.282 33.2529 18.5293 33.4536 18.856 33.6029C19.192 33.7523 19.6027 33.8269 20.088 33.8269H21.81L22.02 33.7989H24.68V35.2129L24.4 35.4929H19.878C19.15 35.4929 18.492 35.3763 17.904 35.1429C17.316 34.9096 16.8493 34.5549 16.504 34.0789C16.168 33.6029 16 33.0149 16 32.3149Z" fill="black"/>
<path d="M24.1232 35.4929V34.0789L24.4032 33.7989H26.9232L26.2512 34.1349C26.1765 34.0136 26.1158 33.8223 26.0692 33.5609C26.0318 33.2996 26.0132 32.9963 26.0132 32.6509V28.4089L27.8472 28.1849H27.9732V32.9729C27.9732 33.1596 27.9732 33.3836 27.9732 33.6449C27.9825 33.9063 27.9918 34.1629 28.0012 34.4149C28.0198 34.6669 28.0478 34.8769 28.0852 35.0449V35.1569C27.8052 35.2689 27.4598 35.3529 27.0492 35.4089C26.6385 35.4649 26.1392 35.4929 25.5512 35.4929H24.1232ZM28.1552 26.7849C27.8845 26.7849 27.6558 26.7009 27.4692 26.5329C27.2825 26.3556 27.1892 26.1223 27.1892 25.8329C27.1892 25.5343 27.2825 25.3009 27.4692 25.1329C27.6558 24.9556 27.8845 24.8669 28.1552 24.8669C28.4258 24.8669 28.6498 24.9556 28.8272 25.1329C29.0138 25.3009 29.1072 25.5343 29.1072 25.8329C29.1072 26.1223 29.0138 26.3556 28.8272 26.5329C28.6498 26.7009 28.4258 26.7849 28.1552 26.7849ZM25.9152 27.0649C25.6445 27.0649 25.4158 26.9809 25.2292 26.8129C25.0518 26.6356 24.9632 26.3976 24.9632 26.0989C24.9632 25.8003 25.0518 25.5669 25.2292 25.3989C25.4158 25.2309 25.6445 25.1469 25.9152 25.1469C26.1858 25.1469 26.4098 25.2309 26.5872 25.3989C26.7738 25.5669 26.8672 25.8003 26.8672 26.0989C26.8672 26.3976 26.7738 26.6356 26.5872 26.8129C26.4098 26.9809 26.1858 27.0649 25.9152 27.0649Z" fill="black"/>
<path d="M39.9963 35.4929V33.7989H45.7643V35.2129L45.4843 35.4929H39.9963ZM30.2383 32.8609H30.3643C30.467 32.9076 30.6117 32.9683 30.7983 33.0429C30.985 33.1083 31.1717 33.1689 31.3583 33.2249C31.545 33.2809 31.6897 33.3276 31.7923 33.3649C32.287 33.5049 32.833 33.6029 33.4303 33.6589C34.037 33.7149 34.625 33.7523 35.1943 33.7709C35.773 33.7896 36.263 33.7989 36.6643 33.7989H42.7263L42.0543 34.1349C41.9703 34.0136 41.9097 33.8269 41.8723 33.5749C41.835 33.3136 41.8163 33.0103 41.8163 32.6649V28.4089L43.6363 28.1849H43.7763V32.9729C43.7763 33.1596 43.7763 33.3836 43.7763 33.6449C43.7857 33.9063 43.795 34.1629 43.8043 34.4149C43.823 34.6669 43.851 34.8769 43.8883 35.0449L43.8603 35.1569C43.5803 35.2689 43.2117 35.3529 42.7543 35.4089C42.3063 35.4649 41.7883 35.4929 41.2003 35.4929H36.6643C35.8243 35.4929 34.989 35.4696 34.1583 35.4229C33.3277 35.3763 32.4037 35.2363 31.3863 35.0029C31.209 34.9563 31.0223 34.9049 30.8263 34.8489C30.6303 34.7836 30.4437 34.7229 30.2663 34.6669C30.0983 34.6016 29.9537 34.5409 29.8323 34.4849L30.2383 32.8609ZM36.1183 37.8169C36.1183 37.5183 36.2117 37.2849 36.3983 37.1169C36.585 36.9489 36.8137 36.8649 37.0843 36.8649C37.3457 36.8649 37.5697 36.9489 37.7563 37.1169C37.943 37.2849 38.0363 37.5183 38.0363 37.8169C38.0363 38.1156 37.943 38.3489 37.7563 38.5169C37.579 38.6849 37.3503 38.7689 37.0703 38.7689C36.809 38.7689 36.585 38.6849 36.3983 38.5169C36.2117 38.3489 36.1183 38.1156 36.1183 37.8169Z" fill="black"/>
<path d="M45.7586 33.7989H48.2926L47.6206 34.1349C47.546 34.0136 47.4853 33.8269 47.4386 33.5749C47.4013 33.3136 47.3826 33.0103 47.3826 32.6649V28.4089L49.2166 28.1849H49.3426V34.5969L48.5446 33.7989H51.2606V35.2129L50.9806 35.4929H45.4786V34.0789L45.7586 33.7989ZM47.9146 37.5649C47.9146 37.2663 48.008 37.0329 48.1946 36.8649C48.3813 36.6969 48.6053 36.6129 48.8666 36.6129C49.1373 36.6129 49.366 36.6969 49.5526 36.8649C49.7393 37.0329 49.8326 37.2663 49.8326 37.5649C49.8326 37.8636 49.7393 38.0969 49.5526 38.2649C49.366 38.4329 49.1373 38.5169 48.8666 38.5169C48.6053 38.5169 48.3813 38.4329 48.1946 38.2649C48.008 38.0969 47.9146 37.8636 47.9146 37.5649ZM45.6746 37.8309C45.6746 37.5416 45.768 37.3083 45.9546 37.1309C46.1413 36.9629 46.37 36.8789 46.6406 36.8789C46.902 36.8789 47.126 36.9629 47.3126 37.1309C47.4993 37.3083 47.5926 37.5416 47.5926 37.8309C47.5926 38.1296 47.4993 38.3629 47.3126 38.5309C47.1353 38.7083 46.9066 38.7969 46.6266 38.7969C46.3653 38.7969 46.1413 38.7083 45.9546 38.5309C45.768 38.3629 45.6746 38.1296 45.6746 37.8309Z" fill="black"/>
<path d="M50.9747 35.4929V34.0789L51.2547 33.7989H58.1007L57.6387 34.0229C57.1534 33.7709 56.6261 33.4023 56.0567 32.9169C55.4874 32.4223 54.8901 31.8343 54.2647 31.1529C53.6394 30.4716 52.9954 29.7156 52.3327 28.8849L53.5227 27.4569H53.6487C54.6754 28.6796 55.5761 29.7016 56.3507 30.5229C57.1347 31.3349 57.8114 31.9789 58.3807 32.4549C58.9501 32.9309 59.4307 33.2763 59.8227 33.4909C60.2241 33.6963 60.5507 33.7989 60.8027 33.7989H61.9787V33.9249L61.4187 35.4929H50.9747ZM54.2927 37.8309C54.2927 37.5323 54.3861 37.2989 54.5727 37.1309C54.7594 36.9629 54.9881 36.8789 55.2587 36.8789C55.5201 36.8789 55.7441 36.9629 55.9307 37.1309C56.1174 37.2989 56.2107 37.5323 56.2107 37.8309C56.2107 38.1296 56.1174 38.3629 55.9307 38.5309C55.7534 38.6989 55.5247 38.7829 55.2447 38.7829C54.9834 38.7829 54.7594 38.6989 54.5727 38.5309C54.3861 38.3629 54.2927 38.1296 54.2927 37.8309Z" fill="black"/>
<g clip-path="url(#clip0_406_2655)">
<path d="M71.2545 35.0496C71.2545 35.0496 71.125 44.536 81.2806 47.5201C81.2806 47.5201 86.2033 49.352 91.5752 45.88C93.1221 44.8862 94.4567 43.5953 95.502 42.0821C96.5472 40.5689 97.2824 38.8633 97.6651 37.064C98.096 35.1201 98.0857 33.1042 97.6347 31.1648C97.6242 31.1206 97.6027 31.0798 97.5722 31.0462C97.5417 31.0125 97.5032 30.9872 97.4602 30.9725C97.4173 30.9578 97.3713 30.9542 97.3266 30.9621C97.2819 30.97 97.2399 30.9891 97.2046 31.0176C96.624 31.487 96.159 32.0837 95.8456 32.7616C95.629 33.2442 95.5116 33.7655 95.5003 34.2944C95.4699 35.384 95.2876 38.1088 94.2212 39.3904C94.2212 39.3904 92.7951 41.4337 89.0555 41.4913C89.0013 41.4923 88.9478 41.478 88.9014 41.4498C88.855 41.4217 88.8176 41.3809 88.7934 41.3323C88.7693 41.2836 88.7595 41.2291 88.7651 41.1751C88.7708 41.1211 88.7916 41.0698 88.8253 41.0272C89.3501 40.3847 90.0227 39.8791 90.7854 39.5536C91.3729 39.2875 91.913 38.927 92.3842 38.4864C92.9438 37.9584 93.4666 37.248 93.3659 36.4896C93.3598 36.4429 93.3435 36.3981 93.3181 36.3585C93.2927 36.3188 93.2588 36.2852 93.219 36.2602C93.1791 36.2351 93.1342 36.2192 93.0875 36.2135C93.0407 36.2078 92.9933 36.2125 92.9486 36.2272C90.5563 36.9503 88.22 37.8476 85.9586 38.912C85.9586 38.912 84.8075 39.4544 83.9282 41.6896C83.9282 41.6896 82.7275 44.2768 81.9281 45.4081C81.821 45.5603 81.667 45.6731 81.4896 45.7292C81.3123 45.7852 81.1214 45.7815 80.9464 45.7185C78.9585 45.0012 77.1865 43.788 75.7982 42.1937C74.4099 40.5994 73.4513 38.6768 73.0132 36.608L71.2545 35.0496Z" fill="#A0CCF8"/>
<path d="M65.9785 28.3328L69.7709 26.7056C69.7709 26.7056 77.6242 33.008 78.4364 39.9856C78.4364 39.9872 74.4426 32 65.9785 28.3328Z" fill="#0E33F3"/>
<path d="M68.957 22.64L74.0364 20.2688C74.0364 20.2688 81.8897 30.2304 80.6043 41.0688C80.6043 41.072 78.9112 29.76 68.957 22.64Z" fill="#0E33F3"/>
<path d="M73.9727 16C73.9727 16 79.8594 22.0992 81.7556 30.6704C81.7556 30.6704 82.9739 35.6512 82.1617 42.088C82.1617 42.088 85.4792 36.3952 83.2441 26.7056C83.2441 26.7056 82.8524 23.8608 80.7468 18.9136L90.9631 18.7776C90.9631 18.7776 94.4373 24.104 93.8074 30.2304C93.8074 30.2304 96.989 25.6224 92.3173 16.4704L73.9727 16Z" fill="#0E33F3"/>
</g>
<defs>
<clipPath id="clip0_406_2655">
<rect width="32" height="32" fill="white" transform="translate(65.9785 16)"/>
</clipPath>
</defs>
</svg>
