<svg width="32" height="32" viewBox="0 0 32 32" fill="none" xmlns="http://www.w3.org/2000/svg">
<g clip-path="url(#clip0_406_2338)">
<path d="M5.27596 19.0496C5.27596 19.0496 5.14646 28.536 15.302 31.52C15.302 31.52 20.2247 33.352 25.5967 29.88C27.1435 28.8861 28.4782 27.5952 29.5234 26.082C30.5687 24.5688 31.3039 22.8633 31.6866 21.064C32.1175 19.1201 32.1071 17.1042 31.6562 15.1648C31.6457 15.1206 31.6242 15.0798 31.5937 15.0461C31.5632 15.0125 31.5247 14.9871 31.4817 14.9724C31.4388 14.9577 31.3928 14.9541 31.3481 14.962C31.3034 14.9699 31.2614 14.9891 31.2261 15.0176C30.6455 15.487 30.1805 16.0837 29.8671 16.7616C29.6505 17.2442 29.533 17.7655 29.5218 18.2944C29.4914 19.384 29.3091 22.1088 28.2427 23.3904C28.2427 23.3904 26.8166 25.4336 23.077 25.4912C23.0228 25.4923 22.9693 25.4779 22.9229 25.4498C22.8765 25.4216 22.8391 25.3809 22.8149 25.3322C22.7908 25.2836 22.781 25.2291 22.7866 25.1751C22.7923 25.1211 22.8131 25.0698 22.8468 25.0272C23.3716 24.3847 24.0441 23.8791 24.8069 23.5536C25.3944 23.2874 25.9345 22.927 26.4057 22.4864C26.9653 21.9584 27.4881 21.248 27.3874 20.4896C27.3813 20.4429 27.3649 20.3981 27.3395 20.3584C27.3141 20.3187 27.2803 20.2852 27.2404 20.2601C27.2006 20.235 27.1557 20.2191 27.1089 20.2134C27.0622 20.2077 27.0148 20.2124 26.9701 20.2272C24.5778 20.9502 22.2415 21.8476 19.9801 22.912C19.9801 22.912 18.829 23.4544 17.9497 25.6896C17.9497 25.6896 16.749 28.2768 15.9496 29.408C15.8425 29.5602 15.6885 29.673 15.5111 29.7291C15.3337 29.7852 15.1429 29.7814 14.9679 29.7184C12.98 29.0012 11.208 27.7879 9.8197 26.1936C8.4314 24.5993 7.47278 22.6768 7.03464 20.608L5.27596 19.0496Z" fill="#A0CCF8"/>
<path d="M0 12.3328L3.79236 10.7056C3.79236 10.7056 11.6457 17.008 12.4579 23.9856C12.4579 23.9872 8.46405 16 0 12.3328Z" fill="#0E33F3"/>
<path d="M2.97852 6.64L8.05791 4.2688C8.05791 4.2688 15.9112 14.2304 14.6258 25.0688C14.6258 25.072 12.9327 13.76 2.97852 6.64Z" fill="#0E33F3"/>
<path d="M7.99414 0C7.99414 0 13.8809 6.0992 15.7771 14.6704C15.7771 14.6704 16.9954 19.6512 16.1832 26.088C16.1832 26.088 19.5007 20.3952 17.2656 10.7056C17.2656 10.7056 16.8739 7.8608 14.7683 2.9136L24.9846 2.7776C24.9846 2.7776 28.4588 8.104 27.8289 14.2304C27.8289 14.2304 31.0105 9.6224 26.3388 0.4704L7.99414 0Z" fill="#0E33F3"/>
</g>
<defs>
<clipPath id="clip0_406_2338">
<rect width="32" height="32" fill="white"/>
</clipPath>
</defs>
</svg>
