<svg width="14" height="14" viewBox="0 0 14 14" fill="none" xmlns="http://www.w3.org/2000/svg">
<path d="M3.53146 7.34455L9.69473 12.1584C9.71083 12.1711 9.73019 12.179 9.75057 12.1811C9.77095 12.1833 9.79153 12.1797 9.80995 12.1707C9.82836 12.1617 9.84387 12.1477 9.85469 12.1303C9.8655 12.1129 9.87119 12.0928 9.87109 12.0723V11.0154C9.87109 10.9485 9.83965 10.8842 9.78769 10.8432L4.86583 7.00002L9.78769 3.15685C9.84101 3.11584 9.87109 3.05158 9.87109 2.98459V1.92775C9.87109 1.83615 9.76582 1.78556 9.69473 1.84162L3.53146 6.65548C3.47908 6.69635 3.4367 6.74861 3.40755 6.80832C3.37841 6.86802 3.36326 6.93358 3.36326 7.00002C3.36326 7.06645 3.37841 7.13201 3.40755 7.19171C3.4367 7.25142 3.47908 7.30368 3.53146 7.34455Z" fill="#242D35"/>
</svg>
