<svg width="400" height="308" viewBox="0 0 400 308" fill="none" xmlns="http://www.w3.org/2000/svg">
<path d="M400 271.01H0V271.21H400V271.01Z" fill="#EBEBEB"/>
<path d="M359.92 278.625H287.2V278.825H359.92V278.625Z" fill="#EBEBEB"/>
<path d="M264.976 276.458H245.064V276.658H264.976V276.458Z" fill="#EBEBEB"/>
<path d="M310.488 286.058H279.616V286.258H310.488V286.058Z" fill="#EBEBEB"/>
<path d="M60.0798 284.714H41.9678V284.914H60.0798V284.714Z" fill="#EBEBEB"/>
<path d="M88.7122 284.714H67.2002V284.914H88.7122V284.714Z" fill="#EBEBEB"/>
<path d="M180.12 281.338H142.648V281.538H180.12V281.338Z" fill="#EBEBEB"/>
<path d="M189.6 235.33H35.1279C33.9177 235.327 32.7579 234.845 31.903 233.989C31.048 233.132 30.5679 231.972 30.5679 230.762V13.6176C30.5784 12.4144 31.0632 11.264 31.917 10.4162C32.7708 9.56837 33.9246 9.09166 35.1279 9.0896H189.6C190.811 9.0896 191.973 9.57087 192.83 10.4275C193.687 11.2842 194.168 12.4461 194.168 13.6576V230.762C194.168 231.973 193.687 233.135 192.83 233.992C191.973 234.848 190.811 235.33 189.6 235.33ZM35.1279 9.2496C33.9708 9.25172 32.8618 9.71285 32.0444 10.5318C31.227 11.3507 30.7679 12.4605 30.7679 13.6176V230.762C30.7679 231.919 31.227 233.028 32.0444 233.847C32.8618 234.666 33.9708 235.127 35.1279 235.13H189.6C190.758 235.127 191.867 234.667 192.686 233.848C193.505 233.029 193.966 231.919 193.968 230.762V13.6176C193.966 12.4598 193.505 11.35 192.686 10.5313C191.867 9.71259 190.758 9.25171 189.6 9.2496H35.1279Z" fill="#EBEBEB"/>
<path d="M362.648 235.33H208.168C206.957 235.327 205.797 234.846 204.94 233.989C204.084 233.133 203.602 231.972 203.6 230.762V13.6176C203.613 12.4137 204.099 11.2633 204.954 10.4157C205.809 9.56809 206.964 9.09164 208.168 9.0896H362.648C363.85 9.09376 365.002 9.5714 365.854 10.419C366.706 11.2666 367.19 12.4158 367.2 13.6176V230.762C367.2 231.97 366.721 233.13 365.868 233.986C365.015 234.842 363.857 235.325 362.648 235.33ZM208.168 9.2496C207.01 9.25171 205.9 9.71259 205.082 10.5313C204.263 11.35 203.802 12.4598 203.8 13.6176V230.762C203.802 231.919 204.263 233.029 205.082 233.848C205.9 234.667 207.01 235.127 208.168 235.13H362.648C363.806 235.127 364.916 234.667 365.734 233.848C366.553 233.029 367.014 231.919 367.016 230.762V13.6176C367.014 12.4598 366.553 11.35 365.734 10.5313C364.916 9.71259 363.806 9.25171 362.648 9.2496H208.168Z" fill="#EBEBEB"/>
<path d="M343.336 174.777C342.151 174.782 340.971 174.935 339.824 175.233C338.689 173.69 337.252 172.394 335.599 171.424C333.946 170.455 332.113 169.833 330.212 169.597C328.311 169.36 326.381 169.514 324.542 170.048C322.702 170.583 320.99 171.487 319.512 172.705C317.086 168.606 313.423 165.381 309.05 163.492C304.677 161.603 299.818 161.148 295.171 162.192C290.523 163.236 286.326 165.726 283.18 169.303C280.035 172.881 278.104 177.362 277.664 182.105C275.145 181.545 272.527 181.603 270.035 182.274C267.543 182.944 265.25 184.207 263.352 185.956C261.454 187.705 260.006 189.886 259.134 192.315C258.261 194.744 257.989 197.348 258.341 199.904C258.693 202.461 259.658 204.895 261.154 206.998C262.649 209.101 264.632 210.811 266.932 211.982C269.231 213.153 271.78 213.751 274.361 213.723C276.942 213.696 279.477 213.045 281.752 211.825C282.77 215.502 284.868 218.789 287.775 221.259C290.682 223.729 294.264 225.27 298.057 225.681C301.849 226.092 305.678 225.355 309.047 223.565C312.416 221.775 315.17 219.015 316.952 215.641C320.005 218.247 323.733 219.935 327.706 220.51C331.678 221.086 335.732 220.524 339.399 218.891C343.065 217.258 346.195 214.621 348.425 211.284C350.655 207.946 351.894 204.046 352 200.033C354.331 198.235 356.04 195.752 356.888 192.933C357.735 190.114 357.679 187.1 356.727 184.315C355.775 181.529 353.975 179.111 351.579 177.401C349.183 175.69 346.312 174.773 343.368 174.777H343.336Z" fill="#F5F5F5"/>
<path d="M58.1359 90.1457C56.3398 89.3625 54.3062 89.3245 52.4821 90.04C50.6579 90.7556 49.1925 92.1661 48.4079 93.9616C47.5108 93.5118 46.5315 93.2494 45.5297 93.1903C44.5279 93.1313 43.5245 93.2768 42.5807 93.6181C41.637 93.9594 40.7726 94.4893 40.0403 95.1755C39.308 95.8617 38.7231 96.6898 38.3212 97.6094C37.9193 98.529 37.7089 99.5208 37.7028 100.524C37.6966 101.528 37.8949 102.522 38.2855 103.447C38.6761 104.371 39.2509 105.206 39.9747 105.901C40.6986 106.596 41.5564 107.137 42.4959 107.49L56.0399 113.402L61.9519 99.8576C62.7323 98.0636 62.7687 96.0331 62.0532 94.2122C61.3378 92.3912 59.9289 90.9287 58.1359 90.1457Z" fill="#F5F5F5"/>
<path d="M121.288 25.6176C120.986 25.0431 120.574 24.5337 120.075 24.1185C119.577 23.7033 119.001 23.3906 118.381 23.1982C117.762 23.0057 117.11 22.9373 116.464 22.997C115.818 23.0566 115.19 23.243 114.616 23.5456C113.983 22.4252 112.939 21.5954 111.705 21.2325C110.471 20.8696 109.143 21.0021 108.005 21.6019C106.867 22.2017 106.008 23.2216 105.609 24.4449C105.211 25.6682 105.305 26.9986 105.872 28.1536L110.48 36.8976L119.2 32.2896C119.776 31.9893 120.287 31.5784 120.703 31.0803C121.12 30.5822 121.435 30.0068 121.629 29.387C121.822 28.7671 121.892 28.1151 121.834 27.4683C121.775 26.8215 121.59 26.1926 121.288 25.6176Z" fill="#E6E6E6"/>
<path d="M322.4 5.76152C322.098 5.18768 321.685 4.67905 321.186 4.26471C320.687 3.85037 320.111 3.53844 319.492 3.34676C318.872 3.15507 318.221 3.08738 317.575 3.14757C316.929 3.20776 316.301 3.39464 315.728 3.69752C315.426 3.12181 315.014 2.61112 314.516 2.19461C314.017 1.7781 313.441 1.46394 312.82 1.27005C312.2 1.07616 311.548 1.00635 310.9 1.06459C310.253 1.12284 309.624 1.30801 309.048 1.60953C308.472 1.91104 307.961 2.323 307.545 2.82188C307.128 3.32076 306.814 3.89679 306.62 4.51708C306.427 5.13738 306.357 5.78979 306.415 6.43707C306.473 7.08434 306.658 7.71381 306.96 8.28952L311.568 17.0255L320.304 12.4255C321.463 11.8174 322.334 10.7749 322.727 9.5261C323.12 8.27731 323.002 6.92379 322.4 5.76152Z" fill="#F5F5F5"/>
<path d="M354.4 150.345C354.249 149.389 353.724 148.531 352.941 147.959C352.159 147.388 351.182 147.15 350.224 147.297C350.035 146.379 349.5 145.569 348.73 145.034C347.959 144.5 347.013 144.283 346.086 144.428C345.16 144.573 344.325 145.069 343.755 145.814C343.185 146.558 342.923 147.493 343.024 148.425L344.152 155.625L351.352 154.497C352.305 154.348 353.161 153.827 353.732 153.049C354.302 152.272 354.543 151.3 354.4 150.345Z" fill="#EBEBEB"/>
<path d="M280.424 88.4977C280.049 88.3799 279.655 88.3373 279.264 88.3721C278.873 88.407 278.493 88.5186 278.145 88.7007C277.797 88.8828 277.489 89.1317 277.238 89.4332C276.986 89.7347 276.797 90.0828 276.68 90.4577C276.305 90.3405 275.91 90.2984 275.519 90.3337C275.128 90.369 274.747 90.4811 274.399 90.6634C274.051 90.8458 273.742 91.0949 273.491 91.3966C273.239 91.6983 273.049 92.0466 272.932 92.4217C272.815 92.7967 272.773 93.1912 272.808 93.5825C272.843 93.9738 272.955 94.3544 273.138 94.7024C273.32 95.0505 273.569 95.3592 273.871 95.6109C274.173 95.8627 274.521 96.0525 274.896 96.1697L280.608 97.9537L282.392 92.2417C282.627 91.4842 282.552 90.6644 282.183 89.9623C281.814 89.2602 281.181 88.7334 280.424 88.4977Z" fill="#F5F5F5"/>
<path d="M58.712 15.4896C57.9535 15.2541 57.1326 15.3291 56.4292 15.698C55.7259 16.0669 55.1975 16.6997 54.96 17.4576C54.5855 17.341 54.1917 17.2993 53.801 17.3348C53.4104 17.3704 53.0305 17.4826 52.6832 17.665C52.336 17.8474 52.028 18.0964 51.7769 18.3978C51.5259 18.6992 51.3366 19.047 51.22 19.4216C51.1034 19.7961 51.0617 20.1899 51.0973 20.5806C51.1329 20.9712 51.2451 21.351 51.4274 21.6983C51.6098 22.0456 51.8588 22.3536 52.1602 22.6047C52.4616 22.8557 52.8095 23.045 53.184 23.1616L58.888 24.9456L60.672 19.2336C60.7897 18.8591 60.8324 18.465 60.7975 18.074C60.7627 17.6829 60.6511 17.3026 60.469 16.9548C60.2869 16.607 60.038 16.2986 59.7365 16.0471C59.435 15.7957 59.0869 15.6062 58.712 15.4896Z" fill="#F5F5F5"/>
<path d="M147.928 149.026C147.923 144.261 146.146 139.669 142.944 136.141C139.742 132.613 135.342 130.402 130.6 129.938C128.233 124.616 124.503 120.013 119.788 116.593C115.074 113.173 109.54 111.057 103.746 110.459C97.9525 109.861 92.1034 110.802 86.7894 113.187C81.4754 115.571 76.8845 119.316 73.4799 124.042C70.6577 121.984 67.2673 120.852 63.7752 120.801C60.2831 120.75 56.861 121.782 53.9796 123.756C51.0982 125.729 48.8992 128.547 47.6851 131.822C46.471 135.096 46.3015 138.667 47.1999 142.042C44.5307 144.289 42.3506 147.061 40.7944 150.184C39.2381 153.307 38.3388 156.717 38.1519 160.201C37.965 163.686 38.4945 167.172 39.7077 170.444C40.9209 173.716 42.7921 176.704 45.2057 179.225C47.6192 181.745 50.5238 183.744 53.7402 185.097C56.9565 186.451 60.4163 187.131 63.9057 187.095C67.3951 187.059 70.8401 186.308 74.028 184.889C77.2158 183.469 80.0787 181.411 82.4399 178.842C85.582 182.925 89.8243 186.026 94.6682 187.782C99.5121 189.537 104.756 189.873 109.785 188.75C114.813 187.628 119.417 185.094 123.054 181.445C126.692 177.797 129.213 173.185 130.32 168.154C135.119 167.754 139.593 165.566 142.854 162.023C146.115 158.48 147.926 153.841 147.928 149.026Z" fill="#EBEBEB"/>
<path d="M277.44 59.0255C277.443 55.7962 278.646 52.6833 280.817 50.2923C282.988 47.9014 285.97 46.4033 289.184 46.0895C290.779 42.4747 293.302 39.3461 296.497 37.0212C299.692 34.6963 303.444 33.2578 307.375 32.8516C311.305 32.4454 315.272 33.086 318.875 34.7084C322.478 36.3308 325.587 38.8773 327.888 42.0895C329.802 40.7054 332.096 39.9466 334.458 39.917C336.819 39.8873 339.132 40.5883 341.08 41.9239C343.028 43.2595 344.516 45.1645 345.339 47.3781C346.162 49.5916 346.281 52.0056 345.68 54.2895C347.496 55.8104 348.98 57.6881 350.041 59.8062C351.101 61.9243 351.715 64.2376 351.845 66.6028C351.974 68.968 351.617 71.3346 350.794 73.5559C349.972 75.7772 348.701 77.8058 347.063 79.5161C345.424 81.2263 343.451 82.5817 341.267 83.4982C339.083 84.4147 336.733 84.8728 334.365 84.8441C331.996 84.8153 329.659 84.3004 327.497 83.3311C325.336 82.3619 323.397 80.959 321.8 79.2095C319.675 81.9785 316.803 84.0833 313.523 85.2767C310.243 86.47 306.69 86.7023 303.282 85.9461C299.875 85.19 296.754 83.4769 294.286 81.0081C291.818 78.5393 290.107 75.4175 289.352 72.0095C286.099 71.7363 283.068 70.2491 280.861 67.8435C278.654 65.4379 277.433 62.2901 277.44 59.0255Z" fill="#F0F0F0"/>
<path d="M200 307.138C285.666 307.138 355.112 303.083 355.112 298.082C355.112 293.08 285.666 289.026 200 289.026C114.334 289.026 44.8882 293.08 44.8882 298.082C44.8882 303.083 114.334 307.138 200 307.138Z" fill="#F5F5F5"/>
<path d="M108.888 277.69H65.4241C64.4062 277.679 63.4337 277.267 62.7177 276.544C62.0016 275.82 61.6 274.843 61.6001 273.826V255.994C61.602 255.083 61.9249 254.202 62.5121 253.505L111.632 195.105C111.996 194.674 112.449 194.328 112.96 194.09C113.471 193.853 114.028 193.73 114.592 193.729H133.416C134.441 193.729 135.424 194.137 136.148 194.861C136.873 195.586 137.28 196.569 137.28 197.594V251.994C137.28 253.018 137.687 254.001 138.412 254.726C139.136 255.45 140.119 255.857 141.144 255.857H146.112C147.137 255.857 148.12 256.265 148.844 256.989C149.569 257.714 149.976 258.697 149.976 259.722V273.794C149.976 274.818 149.569 275.801 148.844 276.526C148.12 277.25 147.137 277.657 146.112 277.657H141.144C140.119 277.657 139.136 278.065 138.412 278.789C137.687 279.514 137.28 280.497 137.28 281.522V292.722C137.28 293.746 136.873 294.729 136.148 295.454C135.424 296.178 134.441 296.586 133.416 296.586H116.616C115.591 296.586 114.608 296.178 113.884 295.454C113.159 294.729 112.752 293.746 112.752 292.722V281.522C112.744 280.502 112.333 279.528 111.609 278.81C110.885 278.092 109.907 277.689 108.888 277.69ZM112.752 253.185V231.426C112.761 230.864 112.595 230.313 112.277 229.85C111.958 229.386 111.504 229.034 110.976 228.841C110.448 228.649 109.873 228.625 109.331 228.774C108.789 228.923 108.307 229.238 107.952 229.674L89.4641 251.433C89.1298 251.827 88.9149 252.307 88.8448 252.818C88.7747 253.329 88.8523 253.85 89.0685 254.318C89.2846 254.787 89.6303 255.184 90.0647 255.462C90.4992 255.741 91.0041 255.889 91.5201 255.89H110.016C110.374 255.894 110.729 255.827 111.061 255.693C111.392 255.559 111.694 255.36 111.949 255.109C112.203 254.857 112.405 254.558 112.543 254.228C112.681 253.898 112.752 253.543 112.752 253.185Z" fill="#263238"/>
<path d="M158.696 245.618C158.696 226.418 162.163 212.964 169.096 205.258C176.029 197.551 186.571 193.711 200.72 193.738C207.525 193.738 213.125 194.578 217.52 196.258C221.492 197.691 225.129 199.92 228.208 202.81C230.804 205.284 233.003 208.145 234.728 211.29C236.437 214.582 237.724 218.076 238.56 221.69C240.469 229.408 241.42 237.331 241.392 245.282C241.392 263.634 238.285 277.063 232.072 285.57C225.859 294.076 215.168 298.343 200 298.37C191.467 298.37 184.589 297.012 179.368 294.298C174.048 291.539 169.569 287.4 166.4 282.314C163.957 278.58 162.059 273.487 160.704 267.034C159.302 259.983 158.629 252.806 158.696 245.618ZM186.568 245.682C186.568 258.562 187.707 267.362 189.984 272.082C192.261 276.802 195.56 279.162 199.88 279.162C201.253 279.175 202.616 278.916 203.889 278.4C205.162 277.883 206.32 277.12 207.296 276.154C209.392 274.154 210.933 270.991 211.92 266.666C212.907 262.34 213.4 255.604 213.4 246.458C213.4 233.034 212.261 224.01 209.984 219.386C207.707 214.762 204.293 212.45 199.744 212.45C195.093 212.45 191.736 214.807 189.672 219.522C187.608 224.236 186.573 232.956 186.568 245.682Z" fill="#263238"/>
<path d="M297.352 277.69H253.896C252.871 277.69 251.889 277.282 251.164 276.558C250.439 275.833 250.032 274.85 250.032 273.826V255.994C250.032 255.084 250.352 254.203 250.936 253.505L300.064 195.105C300.426 194.675 300.878 194.328 301.388 194.091C301.898 193.853 302.454 193.73 303.016 193.729H321.848C322.873 193.729 323.856 194.137 324.58 194.861C325.305 195.586 325.712 196.569 325.712 197.594V251.994C325.708 252.506 325.806 253.014 325.999 253.488C326.193 253.962 326.479 254.393 326.841 254.755C327.203 255.118 327.633 255.405 328.107 255.599C328.58 255.794 329.088 255.893 329.6 255.89H334.56C335.585 255.89 336.568 256.297 337.292 257.021C338.017 257.746 338.424 258.729 338.424 259.753V273.826C338.424 274.85 338.017 275.833 337.292 276.558C336.568 277.282 335.585 277.69 334.56 277.69H329.6C328.575 277.69 327.593 278.097 326.868 278.821C326.143 279.546 325.736 280.529 325.736 281.553V292.754C325.736 293.778 325.329 294.761 324.604 295.486C323.88 296.21 322.897 296.618 321.872 296.618H305.072C304.047 296.618 303.065 296.21 302.34 295.486C301.615 294.761 301.208 293.778 301.208 292.754V281.553C301.208 280.53 300.802 279.548 300.079 278.824C299.356 278.1 298.376 277.692 297.352 277.69ZM301.216 253.186V231.426C301.215 230.873 301.045 230.334 300.729 229.881C300.412 229.428 299.965 229.083 299.446 228.892C298.928 228.701 298.363 228.674 297.829 228.814C297.294 228.953 296.815 229.253 296.456 229.674L277.96 251.434C277.627 251.825 277.412 252.304 277.341 252.814C277.271 253.324 277.347 253.843 277.561 254.311C277.775 254.779 278.119 255.176 278.551 255.456C278.983 255.735 279.486 255.886 280 255.89H298.488C298.845 255.893 299.2 255.825 299.53 255.691C299.861 255.556 300.162 255.357 300.416 255.106C300.669 254.855 300.871 254.556 301.008 254.226C301.146 253.896 301.216 253.543 301.216 253.186Z" fill="#263238"/>
<path d="M126.256 204.194C125.512 205.794 124.728 207.234 123.968 208.722L121.728 213.162L119.488 217.618C118.736 219.114 117.96 220.61 117.04 222.082C117.178 220.367 117.508 218.674 118.024 217.034C118.515 215.381 119.149 213.775 119.92 212.234C120.688 210.691 121.598 209.223 122.64 207.85C123.67 206.469 124.887 205.238 126.256 204.194Z" fill="white"/>
<path d="M129.104 207.954C128.408 209.338 127.688 210.642 126.984 211.954L124.912 215.874L122.84 219.81C122.144 221.13 121.432 222.458 120.584 223.754C120.734 222.227 121.053 220.722 121.536 219.266C122.004 217.807 122.595 216.391 123.304 215.034C124.011 213.67 124.85 212.378 125.808 211.178C126.749 209.953 127.859 208.867 129.104 207.954Z" fill="white"/>
<path d="M121.328 202.618C120.712 204.058 120.056 205.41 119.416 206.77L117.536 210.842L115.656 214.922C115.016 216.29 114.368 217.666 113.584 219.018C113.657 217.469 113.907 215.934 114.328 214.442C114.729 212.943 115.264 211.484 115.928 210.082C116.573 208.679 117.347 207.34 118.24 206.082C119.106 204.792 120.145 203.626 121.328 202.618Z" fill="white"/>
<path d="M304.8 263.418C306.169 264.472 307.386 265.71 308.416 267.098C309.479 268.472 310.411 269.942 311.2 271.49C311.966 273.032 312.598 274.638 313.088 276.29C313.603 277.931 313.936 279.624 314.08 281.338C313.152 279.866 312.384 278.37 311.624 276.874L309.384 272.418L307.144 267.978C306.352 266.458 305.6 264.986 304.8 263.418Z" fill="white"/>
<path d="M301.984 267.177C303.222 268.088 304.328 269.165 305.272 270.377C306.231 271.58 307.07 272.875 307.776 274.242C308.491 275.596 309.083 277.012 309.544 278.474C310.033 279.928 310.355 281.434 310.504 282.961C309.656 281.665 308.944 280.338 308.24 279.018L306.168 275.081L304.096 271.161C303.392 269.889 302.672 268.561 301.984 267.177Z" fill="white"/>
<path d="M309.752 261.842C310.949 262.84 312.005 263.997 312.888 265.282C313.782 266.538 314.553 267.878 315.192 269.282C315.852 270.685 316.387 272.144 316.792 273.642C317.209 275.135 317.459 276.669 317.536 278.218C316.736 276.858 316.096 275.49 315.464 274.122L313.584 270.034L311.704 265.97C311.032 264.634 310.4 263.282 309.752 261.842Z" fill="white"/>
<path d="M239.296 286.385H249.92V289.09H243.272V291.129H249.44V293.746H243.272V296.29H250.112V299.194H239.296V286.385Z" fill="#407BFF"/>
<path d="M250.112 300.762H239.296C238.886 300.762 238.494 300.599 238.204 300.309C237.915 300.02 237.752 299.627 237.752 299.218V286.418C237.751 286.214 237.79 286.013 237.867 285.825C237.945 285.638 238.058 285.467 238.202 285.323C238.345 285.18 238.516 285.066 238.704 284.989C238.892 284.912 239.093 284.872 239.296 284.874H249.92C250.123 284.872 250.324 284.912 250.512 284.989C250.7 285.066 250.871 285.18 251.014 285.323C251.158 285.467 251.271 285.638 251.349 285.825C251.426 286.013 251.465 286.214 251.464 286.418V289.09C251.142 289.307 250.914 289.638 250.825 290.016C250.736 290.394 250.793 290.791 250.984 291.13V293.746C250.806 293.938 250.679 294.171 250.616 294.425C250.553 294.68 250.554 294.946 250.622 295.199C250.689 295.452 250.819 295.684 250.999 295.873C251.18 296.062 251.406 296.203 251.656 296.282V299.186C251.66 299.391 251.623 299.595 251.548 299.786C251.472 299.977 251.359 300.151 251.215 300.298C251.071 300.445 250.9 300.561 250.71 300.641C250.521 300.721 250.317 300.762 250.112 300.762ZM240.84 297.674H242.544C242.3 297.541 242.096 297.344 241.955 297.105C241.814 296.865 241.741 296.592 241.744 296.314V293.778C241.964 293.637 242.144 293.444 242.27 293.215C242.395 292.987 242.461 292.73 242.461 292.47C242.461 292.209 242.395 291.952 242.27 291.724C242.144 291.495 241.964 291.302 241.744 291.162V289.09C241.744 288.861 241.795 288.636 241.893 288.429C241.992 288.223 242.135 288.042 242.312 287.898H240.856L240.84 297.674Z" fill="#407BFF"/>
<path d="M252.304 299.218V286.418H258.912C259.858 286.384 260.804 286.489 261.72 286.73C262.372 286.924 262.936 287.336 263.32 287.898C263.605 288.305 263.802 288.766 263.9 289.253C263.999 289.74 263.995 290.242 263.891 290.728C263.787 291.213 263.583 291.672 263.294 292.076C263.004 292.479 262.635 292.819 262.208 293.074C261.774 293.317 261.304 293.49 260.816 293.586C261.181 293.693 261.528 293.852 261.848 294.058C262.085 294.255 262.297 294.481 262.48 294.73C262.69 294.98 262.877 295.247 263.04 295.53L264.96 299.25H260.48L258.36 295.33C258.19 294.953 257.945 294.616 257.64 294.338C257.357 294.14 257.018 294.036 256.672 294.042H256.32V299.25L252.304 299.218ZM256.304 291.586H257.976C258.33 291.555 258.68 291.496 259.024 291.41C259.284 291.36 259.515 291.214 259.672 291.002C259.855 290.748 259.941 290.438 259.915 290.127C259.889 289.816 259.751 289.524 259.528 289.306C259.083 289.039 258.564 288.924 258.048 288.978H256.304V291.586Z" fill="#407BFF"/>
<path d="M264.928 300.762H260.448C260.171 300.762 259.898 300.688 259.659 300.547C259.42 300.407 259.223 300.204 259.088 299.962L257.832 297.626V299.226C257.83 299.634 257.667 300.026 257.378 300.315C257.089 300.604 256.697 300.767 256.288 300.77H252.288C252.085 300.77 251.885 300.73 251.697 300.652C251.51 300.574 251.34 300.461 251.196 300.317C251.053 300.174 250.939 300.004 250.862 299.816C250.784 299.629 250.744 299.428 250.744 299.226V286.426C250.743 286.222 250.782 286.021 250.86 285.833C250.937 285.646 251.05 285.475 251.194 285.331C251.338 285.188 251.508 285.074 251.696 284.997C251.884 284.92 252.085 284.88 252.288 284.882H258.896C260.006 284.844 261.115 284.976 262.184 285.274C263.142 285.579 263.97 286.196 264.536 287.026C265.13 287.897 265.435 288.932 265.408 289.986C265.425 290.904 265.196 291.81 264.744 292.61C264.47 293.081 264.118 293.502 263.704 293.858C263.958 294.165 264.18 294.498 264.368 294.85L266.28 298.546C266.402 298.781 266.462 299.043 266.453 299.308C266.445 299.573 266.368 299.831 266.23 300.058C266.093 300.285 265.899 300.472 265.669 300.602C265.438 300.733 265.177 300.801 264.912 300.802L264.928 300.762ZM261.368 297.674H262.4L261.6 296.21C261.494 296.014 261.365 295.831 261.216 295.666C261.104 295.522 260.984 295.386 260.856 295.258C260.668 295.157 260.469 295.076 260.264 295.018C260.067 294.949 259.885 294.843 259.728 294.706L261.368 297.674ZM253.848 297.674H254.744V294.01C254.744 293.775 254.797 293.544 254.9 293.333C255.003 293.123 255.152 292.938 255.336 292.794C255.152 292.651 255.003 292.468 254.9 292.258C254.797 292.049 254.744 291.819 254.744 291.586V288.978C254.744 288.589 254.89 288.216 255.152 287.93H253.848V297.674ZM258.536 293.074C258.826 293.298 259.078 293.568 259.28 293.874C259.251 293.74 259.237 293.603 259.24 293.466C259.255 293.269 259.304 293.077 259.384 292.898H259.312C259.008 292.994 258.752 293.042 258.536 293.09V293.074ZM260.32 287.994L260.504 288.13C260.812 288.39 261.057 288.716 261.221 289.085C261.384 289.454 261.462 289.855 261.448 290.258C261.452 290.862 261.255 291.45 260.888 291.93C261.06 291.883 261.224 291.813 261.376 291.722C261.674 291.548 261.925 291.304 262.104 291.01C262.277 290.682 262.359 290.315 262.344 289.946C262.366 289.524 262.254 289.107 262.024 288.754C261.835 288.468 261.552 288.259 261.224 288.162C260.928 288.079 260.626 288.023 260.32 287.994Z" fill="#407BFF"/>
<path d="M266.248 299.217V286.417H272.856C273.805 286.383 274.754 286.488 275.672 286.729C276.324 286.923 276.889 287.335 277.272 287.897C277.556 288.305 277.754 288.766 277.852 289.253C277.95 289.74 277.947 290.242 277.843 290.728C277.739 291.213 277.535 291.672 277.246 292.076C276.956 292.479 276.587 292.819 276.16 293.073C275.726 293.317 275.256 293.49 274.768 293.585C275.133 293.693 275.48 293.852 275.8 294.057C276.04 294.254 276.255 294.48 276.44 294.729C276.645 294.981 276.829 295.249 276.992 295.529L278.912 299.249H274.4L272.28 295.329C272.113 294.952 271.867 294.614 271.56 294.337C271.278 294.137 270.938 294.033 270.592 294.041H270.24V299.249L266.248 299.217ZM270.248 291.585H271.92C272.274 291.556 272.624 291.497 272.968 291.409C273.228 291.36 273.459 291.214 273.616 291.001C273.783 290.79 273.87 290.527 273.864 290.257C273.875 290.079 273.845 289.901 273.777 289.737C273.709 289.572 273.605 289.424 273.472 289.305C273.027 289.039 272.508 288.924 271.992 288.977H270.248V291.585Z" fill="#407BFF"/>
<path d="M278.872 300.761H274.4C274.122 300.762 273.85 300.688 273.611 300.547C273.371 300.406 273.174 300.204 273.04 299.961L271.784 297.625V299.225C271.784 299.635 271.621 300.028 271.332 300.317C271.042 300.607 270.649 300.769 270.24 300.769H266.24C265.831 300.767 265.439 300.604 265.15 300.315C264.861 300.026 264.698 299.634 264.696 299.225V286.425C264.696 286.016 264.858 285.623 265.148 285.334C265.438 285.044 265.83 284.881 266.24 284.881H272.848C273.957 284.843 275.066 284.975 276.136 285.273C277.097 285.576 277.928 286.193 278.496 287.025C279.032 287.854 279.334 288.812 279.37 289.798C279.405 290.784 279.172 291.761 278.696 292.625C278.422 293.095 278.073 293.516 277.664 293.873C277.915 294.183 278.137 294.515 278.328 294.865L280.232 298.561C280.354 298.797 280.414 299.059 280.405 299.324C280.396 299.589 280.319 299.847 280.182 300.074C280.045 300.301 279.851 300.488 279.62 300.618C279.389 300.749 279.129 300.817 278.864 300.817L278.872 300.761ZM275.312 297.673H276.344L275.584 296.209C275.469 296.017 275.337 295.835 275.192 295.665C275.086 295.517 274.966 295.381 274.832 295.257C274.644 295.157 274.445 295.076 274.24 295.017C274.045 294.948 273.866 294.843 273.712 294.705L275.312 297.673ZM267.792 297.673H268.688V294.009C268.688 293.775 268.741 293.544 268.844 293.333C268.946 293.122 269.095 292.938 269.28 292.793C269.096 292.651 268.946 292.467 268.844 292.258C268.741 292.049 268.688 291.819 268.688 291.585V288.977C268.688 288.588 268.837 288.213 269.104 287.929H267.792V297.673ZM272.48 293.089C272.77 293.314 273.021 293.584 273.224 293.889C273.204 293.754 273.204 293.617 273.224 293.481C273.232 293.285 273.278 293.092 273.36 292.913H273.296C272.952 292.993 272.696 293.041 272.48 293.089ZM274.272 288.009L274.448 288.145C274.756 288.406 275.001 288.732 275.165 289.101C275.328 289.469 275.406 289.87 275.392 290.273C275.396 290.878 275.199 291.466 274.832 291.945C275.006 291.899 275.173 291.829 275.328 291.737C275.624 291.564 275.871 291.319 276.048 291.025C276.22 290.698 276.303 290.331 276.288 289.961C276.309 289.54 276.197 289.123 275.968 288.769C275.779 288.484 275.496 288.275 275.168 288.177C274.875 288.09 274.575 288.028 274.272 287.993V288.009Z" fill="#407BFF"/>
<path d="M279.336 292.809C279.248 291.916 279.359 291.014 279.661 290.169C279.963 289.323 280.448 288.555 281.082 287.92C281.716 287.284 282.483 286.797 283.328 286.493C284.173 286.189 285.074 286.076 285.968 286.161C286.864 286.104 287.762 286.227 288.61 286.522C289.457 286.818 290.238 287.28 290.904 287.881C291.5 288.524 291.961 289.28 292.258 290.105C292.554 290.93 292.682 291.806 292.632 292.681C292.681 293.953 292.423 295.218 291.88 296.369C291.386 297.315 290.623 298.095 289.688 298.609C288.587 299.179 287.358 299.454 286.12 299.409C284.886 299.45 283.659 299.215 282.528 298.721C281.556 298.24 280.753 297.476 280.224 296.529C279.6 295.391 279.294 294.107 279.336 292.809ZM283.336 292.809C283.248 293.795 283.503 294.781 284.056 295.601C284.311 295.867 284.617 296.078 284.956 296.222C285.295 296.367 285.66 296.441 286.028 296.441C286.396 296.441 286.761 296.367 287.1 296.222C287.438 296.078 287.745 295.867 288 295.601C288.558 294.712 288.806 293.663 288.704 292.617C288.779 291.676 288.518 290.737 287.968 289.969C287.716 289.698 287.408 289.486 287.065 289.348C286.722 289.209 286.353 289.148 285.984 289.169C285.621 289.156 285.259 289.225 284.926 289.372C284.594 289.519 284.299 289.74 284.064 290.017C283.492 290.837 283.223 291.83 283.304 292.825L283.336 292.809Z" fill="#407BFF"/>
<path d="M286.12 300.977C284.653 301.019 283.195 300.729 281.856 300.129C280.61 299.52 279.577 298.546 278.896 297.337C278.124 295.956 277.742 294.391 277.792 292.809C277.85 291.19 278.369 289.621 279.288 288.286C280.207 286.952 281.488 285.907 282.98 285.276C284.472 284.644 286.113 284.451 287.711 284.72C289.309 284.989 290.797 285.708 292 286.793C292.747 287.579 293.326 288.508 293.703 289.524C294.08 290.541 294.246 291.623 294.192 292.705C294.242 294.229 293.92 295.742 293.256 297.113C292.627 298.324 291.652 299.321 290.456 299.977C289.121 300.679 287.627 301.024 286.12 300.977ZM287.2 287.785C287.939 287.988 288.602 288.406 289.104 288.985C289.915 290.027 290.311 291.333 290.216 292.649C290.216 294.481 289.872 295.777 289.16 296.649C288.703 297.191 288.105 297.595 287.432 297.817C287.962 297.74 288.474 297.569 288.944 297.313C289.624 296.951 290.181 296.394 290.544 295.713C290.973 294.785 291.173 293.767 291.128 292.745C291.178 292.07 291.09 291.391 290.87 290.75C290.65 290.109 290.302 289.52 289.848 289.017C289.127 288.324 288.195 287.891 287.2 287.785ZM284.728 287.785C283.77 287.901 282.876 288.328 282.184 289.001C281.722 289.514 281.369 290.115 281.147 290.769C280.924 291.422 280.836 292.113 280.888 292.801C280.843 293.83 281.075 294.853 281.56 295.761C281.932 296.451 282.507 297.01 283.208 297.361C283.617 297.554 284.05 297.691 284.496 297.769C283.859 297.537 283.294 297.143 282.856 296.625C282.143 295.486 281.764 294.169 281.764 292.825C281.764 291.481 282.143 290.165 282.856 289.025C283.343 288.441 283.991 288.012 284.72 287.793L284.728 287.785ZM285.96 290.705C285.819 290.691 285.677 290.712 285.546 290.765C285.415 290.818 285.299 290.902 285.208 291.009C284.902 291.559 284.779 292.193 284.856 292.817C284.778 293.437 284.902 294.065 285.208 294.609C285.306 294.722 285.431 294.808 285.57 294.861C285.71 294.914 285.86 294.932 286.008 294.913C286.568 294.913 286.728 294.729 286.808 294.633C286.888 294.537 287.144 294.185 287.144 292.641C287.207 292.084 287.084 291.521 286.792 291.041C286.691 290.919 286.562 290.823 286.416 290.761C286.269 290.7 286.11 290.675 285.952 290.689L285.96 290.705Z" fill="#407BFF"/>
<path d="M294.824 299.218V286.418H301.432C302.378 286.384 303.324 286.489 304.24 286.73C304.891 286.924 305.456 287.336 305.84 287.898C306.124 288.305 306.322 288.766 306.42 289.253C306.518 289.74 306.515 290.242 306.411 290.728C306.306 291.213 306.103 291.672 305.813 292.076C305.524 292.479 305.154 292.819 304.728 293.074C304.294 293.317 303.824 293.49 303.336 293.586C303.7 293.693 304.048 293.852 304.368 294.058C304.605 294.255 304.817 294.481 305 294.73C305.209 294.98 305.397 295.247 305.56 295.53L307.48 299.25H303L300.88 295.33C300.71 294.953 300.465 294.616 300.16 294.338C299.876 294.14 299.537 294.036 299.192 294.042H298.84V299.25L294.824 299.218ZM298.824 291.586H300.496C300.849 291.555 301.2 291.496 301.544 291.41C301.803 291.36 302.035 291.214 302.192 291.002C302.375 290.748 302.461 290.438 302.435 290.127C302.408 289.816 302.271 289.524 302.048 289.306C301.603 289.039 301.084 288.924 300.568 288.978H298.824V291.586Z" fill="#407BFF"/>
<path d="M307.448 300.762H302.968C302.69 300.762 302.418 300.688 302.178 300.547C301.939 300.407 301.742 300.204 301.608 299.962L300.352 297.626V299.226C300.35 299.634 300.186 300.026 299.897 300.315C299.608 300.604 299.217 300.767 298.808 300.77H294.808C294.398 300.77 294.005 300.607 293.716 300.317C293.426 300.028 293.264 299.635 293.264 299.226V286.426C293.263 286.222 293.302 286.021 293.379 285.833C293.456 285.646 293.57 285.475 293.714 285.331C293.857 285.188 294.028 285.074 294.216 284.997C294.403 284.92 294.605 284.88 294.808 284.882H301.416C302.525 284.844 303.634 284.976 304.704 285.274C305.661 285.579 306.489 286.196 307.056 287.026C307.652 287.896 307.96 288.931 307.936 289.986C307.951 290.905 307.719 291.811 307.264 292.61C306.989 293.081 306.638 293.502 306.224 293.858C306.477 294.165 306.7 294.498 306.888 294.85L308.8 298.546C308.922 298.781 308.982 299.043 308.973 299.308C308.964 299.573 308.887 299.831 308.75 300.058C308.612 300.285 308.419 300.472 308.188 300.602C307.957 300.733 307.697 300.801 307.432 300.802L307.448 300.762ZM303.888 297.674H304.912L304.16 296.21C304.045 296.018 303.913 295.836 303.768 295.666C303.656 295.522 303.536 295.386 303.408 295.258C303.219 295.157 303.021 295.076 302.816 295.018C302.618 294.949 302.436 294.843 302.28 294.706L303.888 297.674ZM296.368 297.674H297.264V294.01C297.264 293.775 297.317 293.544 297.419 293.333C297.522 293.123 297.671 292.938 297.856 292.794C297.671 292.651 297.522 292.468 297.42 292.258C297.317 292.049 297.264 291.819 297.264 291.586V288.978C297.261 288.589 297.407 288.214 297.672 287.93H296.368V297.674ZM301.056 293.074C301.346 293.298 301.597 293.568 301.8 293.874C301.78 293.738 301.78 293.601 301.8 293.466C301.808 293.269 301.854 293.076 301.936 292.898H301.864C301.528 292.994 301.272 293.042 301.056 293.09V293.074ZM302.848 287.994L303.024 288.13C303.332 288.39 303.577 288.716 303.74 289.085C303.904 289.454 303.982 289.855 303.968 290.258C303.972 290.862 303.775 291.45 303.408 291.93C303.913 291.788 304.345 291.459 304.616 291.01C304.79 290.656 304.874 290.266 304.861 289.873C304.849 289.479 304.74 289.095 304.544 288.754C304.355 288.468 304.072 288.259 303.744 288.162C303.451 288.079 303.151 288.023 302.848 287.994Z" fill="#407BFF"/>
<path d="M239.296 286.385H249.92V289.09H243.272V291.129H249.44V293.746H243.272V296.29H250.112V299.194H239.296V286.385Z" fill="white"/>
<path d="M252.304 299.218V286.418H258.912C259.858 286.384 260.804 286.489 261.72 286.73C262.372 286.924 262.936 287.336 263.32 287.898C263.605 288.305 263.802 288.766 263.9 289.253C263.999 289.74 263.995 290.242 263.891 290.728C263.787 291.213 263.583 291.672 263.294 292.076C263.004 292.479 262.635 292.819 262.208 293.074C261.774 293.317 261.304 293.49 260.816 293.586C261.181 293.693 261.528 293.852 261.848 294.058C262.085 294.255 262.297 294.481 262.48 294.73C262.69 294.98 262.877 295.247 263.04 295.53L264.96 299.25H260.48L258.36 295.33C258.19 294.953 257.945 294.616 257.64 294.338C257.357 294.14 257.018 294.036 256.672 294.042H256.32V299.25L252.304 299.218ZM256.304 291.586H257.976C258.33 291.555 258.68 291.496 259.024 291.41C259.284 291.36 259.515 291.214 259.672 291.002C259.855 290.748 259.941 290.438 259.915 290.127C259.889 289.816 259.751 289.524 259.528 289.306C259.083 289.039 258.564 288.924 258.048 288.978H256.304V291.586Z" fill="white"/>
<path d="M266.248 299.217V286.417H272.856C273.805 286.383 274.754 286.488 275.672 286.729C276.324 286.923 276.889 287.335 277.272 287.897C277.556 288.305 277.754 288.766 277.852 289.253C277.95 289.74 277.947 290.242 277.843 290.728C277.739 291.213 277.535 291.672 277.246 292.076C276.956 292.479 276.587 292.819 276.16 293.073C275.726 293.317 275.256 293.49 274.768 293.585C275.133 293.693 275.48 293.852 275.8 294.057C276.04 294.254 276.255 294.48 276.44 294.729C276.645 294.981 276.829 295.249 276.992 295.529L278.912 299.249H274.4L272.28 295.329C272.113 294.952 271.867 294.614 271.56 294.337C271.278 294.137 270.938 294.033 270.592 294.041H270.24V299.249L266.248 299.217ZM270.248 291.585H271.92C272.274 291.556 272.624 291.497 272.968 291.409C273.228 291.36 273.459 291.214 273.616 291.001C273.783 290.79 273.87 290.527 273.864 290.257C273.875 290.079 273.845 289.901 273.777 289.737C273.709 289.572 273.605 289.424 273.472 289.305C273.027 289.039 272.508 288.924 271.992 288.977H270.248V291.585Z" fill="white"/>
<path d="M279.336 292.809C279.248 291.916 279.359 291.014 279.661 290.169C279.963 289.323 280.448 288.555 281.082 287.92C281.716 287.284 282.483 286.797 283.328 286.493C284.173 286.189 285.074 286.076 285.968 286.161C286.864 286.104 287.762 286.227 288.61 286.522C289.457 286.818 290.238 287.28 290.904 287.881C291.5 288.524 291.961 289.28 292.258 290.105C292.554 290.93 292.682 291.806 292.632 292.681C292.681 293.953 292.423 295.218 291.88 296.369C291.386 297.315 290.623 298.095 289.688 298.609C288.587 299.179 287.358 299.454 286.12 299.409C284.886 299.45 283.659 299.215 282.528 298.721C281.556 298.24 280.753 297.476 280.224 296.529C279.6 295.391 279.294 294.107 279.336 292.809ZM283.336 292.809C283.248 293.795 283.503 294.781 284.056 295.601C284.311 295.867 284.617 296.078 284.956 296.222C285.295 296.367 285.66 296.441 286.028 296.441C286.396 296.441 286.761 296.367 287.1 296.222C287.438 296.078 287.745 295.867 288 295.601C288.558 294.712 288.806 293.663 288.704 292.617C288.779 291.676 288.518 290.737 287.968 289.969C287.716 289.698 287.408 289.486 287.065 289.348C286.722 289.209 286.353 289.148 285.984 289.169C285.621 289.156 285.259 289.225 284.926 289.372C284.594 289.519 284.299 289.74 284.064 290.017C283.492 290.837 283.223 291.83 283.304 292.825L283.336 292.809Z" fill="white"/>
<path d="M294.824 299.218V286.418H301.432C302.378 286.384 303.324 286.489 304.24 286.73C304.891 286.924 305.456 287.336 305.84 287.898C306.124 288.305 306.322 288.766 306.42 289.253C306.518 289.74 306.515 290.242 306.411 290.728C306.306 291.213 306.103 291.672 305.813 292.076C305.524 292.479 305.154 292.819 304.728 293.074C304.294 293.317 303.824 293.49 303.336 293.586C303.7 293.693 304.048 293.852 304.368 294.058C304.605 294.255 304.817 294.481 305 294.73C305.209 294.98 305.397 295.247 305.56 295.53L307.48 299.25H303L300.88 295.33C300.71 294.953 300.465 294.616 300.16 294.338C299.876 294.14 299.537 294.036 299.192 294.042H298.84V299.25L294.824 299.218ZM298.824 291.586H300.496C300.849 291.555 301.2 291.496 301.544 291.41C301.803 291.36 302.035 291.214 302.192 291.002C302.375 290.748 302.461 290.438 302.435 290.127C302.408 289.816 302.271 289.524 302.048 289.306C301.603 289.039 301.084 288.924 300.568 288.978H298.824V291.586Z" fill="white"/>
<path d="M341.2 90.1135C337.839 89.0452 334.326 88.5292 330.8 88.5855C327.376 88.6054 323.986 89.2591 320.8 90.5135C319.462 91.0391 318.204 91.7501 317.064 92.6255C316.952 92.7215 316.824 92.8095 316.736 92.8975C316.648 92.9855 316.56 93.0495 316.416 93.2015C316.272 93.3535 315.896 93.7375 315.616 94.0015C315.105 94.5811 314.632 95.193 314.2 95.8335C312.412 98.462 311.277 101.479 310.888 104.634C310.698 106.128 310.717 107.641 310.944 109.13C311.051 109.83 311.214 110.52 311.432 111.194C311.649 111.868 311.917 112.526 312.232 113.162C313.109 114.805 314.101 116.385 315.2 117.89C316.424 119.634 317.84 121.538 319.2 123.866C320.782 126.444 321.91 129.274 322.536 132.234C322.855 133.899 322.973 135.596 322.888 137.29C322.792 138.95 322.5 140.594 322.016 142.186C321.082 145.235 319.53 148.059 317.456 150.482C316.433 151.672 315.294 152.757 314.056 153.722C312.861 154.662 311.58 155.49 310.232 156.194C307.63 157.536 304.833 158.462 301.944 158.938C299.24 159.385 296.494 159.514 293.76 159.322C291.153 159.137 288.569 158.713 286.04 158.058C283.664 157.441 281.327 156.685 279.04 155.794C274.592 154.09 270.56 152.138 266.712 150.482C263.147 148.845 259.42 147.59 255.592 146.738C253.857 146.385 252.09 146.208 250.32 146.21C248.524 146.215 246.732 146.387 244.968 146.722C241.248 147.481 237.651 148.752 234.28 150.498C227.288 154.026 220.824 159.402 214.136 165.034C212.926 166.056 211.361 166.559 209.781 166.432C208.202 166.305 206.737 165.558 205.707 164.355C204.676 163.152 204.163 161.59 204.279 160.01C204.395 158.43 205.132 156.96 206.328 155.922C212.928 150.17 219.88 144.002 228.504 139.394C232.888 137.016 237.585 135.266 242.456 134.194C244.991 133.658 247.57 133.361 250.16 133.306C252.779 133.247 255.398 133.454 257.976 133.922C262.743 134.854 267.396 136.294 271.856 138.218C276.096 139.954 280.008 141.738 283.784 143.098C285.595 143.764 287.444 144.325 289.32 144.778C291.047 145.193 292.81 145.445 294.584 145.53C297.703 145.784 300.833 145.178 303.632 143.778C304.22 143.45 304.777 143.07 305.296 142.642C305.779 142.245 306.224 141.803 306.624 141.322C307.391 140.38 307.957 139.291 308.288 138.122C308.436 137.601 308.517 137.063 308.528 136.522C308.541 136.021 308.493 135.522 308.384 135.034C308.036 133.711 307.474 132.454 306.72 131.314C305.832 129.874 304.616 128.258 303.28 126.442C301.738 124.412 300.345 122.273 299.112 120.042C298.414 118.733 297.815 117.375 297.32 115.978C296.836 114.574 296.461 113.135 296.2 111.674C295.693 108.83 295.583 105.931 295.872 103.058C296.43 97.4568 298.323 92.0716 301.392 87.3535C302.164 86.1595 303.011 85.0158 303.928 83.9295C304.4 83.3855 304.88 82.8495 305.384 82.3295C305.616 82.0815 305.952 81.7695 306.248 81.4895C306.544 81.2095 306.856 80.9535 307.16 80.6895C309.445 78.8187 311.989 77.2882 314.712 76.1455C319.67 74.0702 324.971 72.9362 330.344 72.8015C335.593 72.6344 340.834 73.3179 345.864 74.8255C347.77 75.5295 349.338 76.9326 350.247 78.7501C351.157 80.5676 351.34 82.663 350.761 84.611C350.181 86.559 348.882 88.2135 347.127 89.2384C345.372 90.2634 343.293 90.582 341.312 90.1295L341.2 90.1135Z" fill="#263238"/>
<path d="M341.008 90.7615C336.709 89.3043 332.153 88.7593 327.632 89.1615C325.451 89.3599 323.302 89.8219 321.232 90.5375C319.519 91.1221 317.917 91.9931 316.496 93.1135L316.04 93.5055C314.532 94.8899 312.537 95.6188 310.492 95.5318C308.447 95.4447 306.52 94.549 305.136 93.0415C303.751 91.534 303.023 89.5383 303.11 87.4934C303.197 85.4485 304.092 83.5219 305.6 82.1375C308.402 79.3964 311.708 77.2231 315.336 75.7375C318.601 74.3763 322.021 73.4225 325.52 72.8975C332.384 71.8892 339.384 72.3362 346.064 74.2095C348.281 74.8163 350.166 76.279 351.305 78.2759C352.444 80.2728 352.743 82.6403 352.136 84.8575C351.529 87.0747 350.066 88.96 348.069 90.0987C346.072 91.2375 343.705 91.5363 341.488 90.9295L341.064 90.8015L341.008 90.7615Z" fill="#407BFF"/>
<path d="M191.84 189.769L194.808 194.393C191.824 195.953 188.704 195.721 185.52 195.721C184.168 189.465 191.84 189.769 191.84 189.769Z" fill="#263238"/>
<path d="M173.752 165.09C177.536 175.978 191.568 190.418 191.568 190.418C191.568 190.418 185.648 191.602 187.256 195.69H195.52L213.312 192.338C213.906 192.199 214.424 191.841 214.763 191.334C215.102 190.827 215.235 190.211 215.136 189.61L208.568 167.578L173.752 165.09Z" fill="#407BFF"/>
<path d="M242.768 171.322L244.368 177.81C247.504 176.57 250.152 175.722 251.512 172.81C249.936 168.762 242.768 171.322 242.768 171.322Z" fill="#263238"/>
<path d="M228.72 138.034C234.32 148.066 246.128 172.53 246.128 172.53C246.128 172.53 252.192 172.786 251.384 177.05L227.872 182.858C227.348 183.039 226.778 183.043 226.252 182.868C225.725 182.693 225.271 182.349 224.96 181.89L208.16 167.666C217.328 162.066 228 147.37 228.72 138.034Z" fill="#407BFF"/>
<path opacity="0.1" d="M217.824 159.082C215.07 162.415 211.835 165.319 208.224 167.698L213.024 171.61C218.2 166.978 219.672 162.018 217.824 159.082Z" fill="black"/>
<path d="M211.84 108.905C218.368 110.017 245.48 106.337 247.496 106.241C247.712 104.745 248.4 101.041 250.024 101.697C251.648 102.353 252.48 105.153 252.152 106.497C256 105.809 261.056 113.697 255.304 120.097C246.88 129.553 216.104 131.001 216.104 131.001C216.104 131.001 199.408 110.473 211.84 108.905Z" fill="#407BFF"/>
<path opacity="0.1" d="M213.872 121.49C212.571 121.346 211.255 121.49 210.016 121.914C211.802 125.101 213.841 128.14 216.112 131.002C216.112 131.002 222.32 130.706 229.92 129.538C225.736 126.546 219.104 122.33 213.872 121.49Z" fill="black"/>
<path d="M252.152 106.473C256.04 104.873 258.76 104.073 259.656 105.409C260.552 106.745 259.352 109.553 255.592 110.281C252.144 108.121 252.152 106.473 252.152 106.473Z" fill="#407BFF"/>
<path d="M254.68 109.802C258.776 109.666 261.52 109.906 261.88 111.402C262.24 112.898 260.176 115.074 256.512 114.442C254.104 111.306 254.68 109.802 254.68 109.802Z" fill="#407BFF"/>
<path d="M257.264 113.986C259.896 115.21 261.512 116.282 261.032 117.57C260.552 118.858 258.272 119.85 256.232 118.17C256.208 114.954 257.264 113.986 257.264 113.986Z" fill="#407BFF"/>
<path d="M161.72 129.361C158.712 135.257 139.544 154.777 138.256 156.345C136.928 155.617 133.552 153.945 133.112 155.649C132.672 157.353 134.408 159.689 135.656 160.209C132.808 162.881 136.08 171.641 144.696 170.889C157.312 169.785 176.872 146.001 176.872 146.001C176.872 146.001 170.4 120.329 161.72 129.361Z" fill="#407BFF"/>
<path opacity="0.1" d="M170.584 138.514C171.253 137.388 172.156 136.419 173.232 135.674C174.722 139.012 175.939 142.466 176.872 146.002C176.872 146.002 172.928 150.802 167.44 156.186C167.544 151.05 168.128 143.21 170.584 138.514Z" fill="black"/>
<path d="M135.656 160.209C132.032 162.353 129.784 164.073 130.32 165.585C130.856 167.097 133.824 167.825 136.656 165.249C136.984 161.193 135.656 160.209 135.656 160.209Z" fill="#407BFF"/>
<path d="M136.8 164.234C134.24 167.434 132.8 169.77 133.808 170.962C134.816 172.154 137.76 171.762 139.448 168.466C138.4 164.666 136.8 164.234 136.8 164.234Z" fill="#407BFF"/>
<path d="M138.624 168.801C138.024 171.641 137.92 173.601 139.248 173.969C140.576 174.337 142.72 173.121 142.576 170.497C140 168.537 138.624 168.801 138.624 168.801Z" fill="#407BFF"/>
<path opacity="0.1" d="M208.584 167.658V167.61L197.944 166.81C197.728 171.394 203.064 174.298 210.232 173.066L208.584 167.658Z" fill="black"/>
<path d="M210.552 112.586L188.6 121.986L166.656 131.386C166.656 131.386 168.992 159.754 176.192 169.474C183.392 179.194 197.296 176.202 209.576 170.938C221.856 165.674 233.576 157.682 231.544 145.762C229.512 133.842 210.552 112.586 210.552 112.586Z" fill="#407BFF"/>
<path opacity="0.2" d="M201 117.89L189.048 123.01L177.104 128.13C177.28 125.802 172.4 147.458 180.72 159.002C186.144 166.522 196.272 164.458 205.176 160.642C214.08 156.826 222.552 150.922 220.848 141.81C218.24 127.834 199.2 116.434 201 117.89Z" fill="white"/>
<path opacity="0.2" d="M197.2 121.266L189.2 124.674L181.24 128.09C181.296 126.41 178.536 141.986 184.44 150.562C188.304 156.162 195.112 154.914 201.048 152.37C206.984 149.826 212.584 145.754 211.2 139.098C209.128 128.898 195.936 120.154 197.2 121.266Z" fill="white"/>
<path opacity="0.2" d="M141.223 167.766C142.736 167.159 143.326 165.081 142.541 163.125C141.757 161.169 139.894 160.076 138.381 160.683C136.868 161.29 136.277 163.367 137.062 165.323C137.847 167.279 139.709 168.373 141.223 167.766Z" fill="white"/>
<path opacity="0.2" d="M255.584 113.761C255.736 115.865 254.544 117.665 252.92 117.761C251.296 117.857 249.848 116.273 249.72 114.177C249.592 112.081 250.76 110.273 252.384 110.177C254.008 110.081 255.432 111.665 255.584 113.761Z" fill="white"/>
<path d="M140.552 61.0896C108.656 38.5136 59.6477 52.3616 55.7997 60.8896C51.7117 69.9696 96.0957 94.4256 107 118.058C122.92 88.4816 140.552 61.0896 140.552 61.0896Z" fill="#263238"/>
<path opacity="0.5" d="M128.8 70.3455C103.552 52.7455 67.9521 60.6655 65.6481 66.6655C63.1921 73.0655 97.8721 92.5455 107.56 110.066C117.44 89.3855 128.8 70.3455 128.8 70.3455Z" fill="#407BFF"/>
<path d="M131.944 66.0735C124.792 66.5535 118.736 68.9535 113.4 74.5855C115.804 73.8146 118.367 73.6784 120.84 74.19C123.312 74.7017 125.611 75.8438 127.512 77.5055L131.944 66.0735Z" fill="#263238"/>
<path d="M178.72 44.7295C194.048 -3.63846 248.64 -3.83046 259.52 3.48954C267.784 9.08954 232.592 31.4335 242.024 63.6895C210.28 52.8255 178.72 44.7295 178.72 44.7295Z" fill="#263238"/>
<path opacity="0.5" d="M193.144 43.6816C205.944 15.6816 235.8 4.4816 249.744 6.9856C262.928 9.3376 223.536 40.0816 231.584 67.1456C212.56 54.3456 193.144 43.6816 193.144 43.6816Z" fill="#407BFF"/>
<path d="M192.272 39.3614C194.739 38.0252 197.447 37.1909 200.238 36.9067C203.03 36.6224 205.85 36.8939 208.536 37.7054C206.562 38.1478 204.737 39.0935 203.236 40.4505C201.736 41.8075 200.613 43.5297 199.976 45.4494L192.272 39.3614Z" fill="#263238"/>
<path d="M192.936 37.0896C194.57 35.5621 196.489 34.3728 198.585 33.5902C200.68 32.8076 202.909 32.4472 205.144 32.5296C203.711 33.27 202.494 34.3685 201.61 35.7185C200.727 37.0684 200.208 38.6238 200.104 40.2336L192.936 37.0896Z" fill="#263238"/>
<path d="M251.464 66.1616C259.528 84.9776 230.44 107.762 189.944 125.114C149.448 142.466 112.888 147.81 104.8 128.986C96.7119 110.162 116.192 64.8976 156.688 47.5456C197.184 30.1936 243.4 47.3376 251.464 66.1616Z" fill="#407BFF"/>
<path opacity="0.1" d="M235.48 67.9535C242.952 85.4015 220.168 105.402 187.48 119.402C154.792 133.402 124.608 136.098 117.136 118.642C109.664 101.186 127.728 70.1855 160.4 56.1935C193.072 42.2015 228 50.4975 235.48 67.9535Z" fill="black"/>
<path d="M169.736 93.3856C169.032 91.7376 171.184 89.8496 174.264 88.5216C177.344 87.1936 180.208 86.9216 180.912 88.5936C181.616 90.2656 180.536 94.6256 177.448 95.9536C174.36 97.2816 170.44 95.0336 169.736 93.3856Z" fill="#263238"/>
<path opacity="0.3" d="M176.272 108.081C175.8 106.961 178.064 105.337 181.152 104.017C184.24 102.697 186.976 102.177 187.448 103.289C187.92 104.401 186.384 107.713 183.304 109.033C180.224 110.353 176.752 109.193 176.272 108.081Z" fill="black"/>
<path opacity="0.4" d="M119.128 94.5057C123.536 81.8816 133.608 72.5137 143.88 70.1697C161.2 66.2177 166.28 87.9057 157.912 102.858C148.568 119.594 127.928 117.042 125.912 109.386C123.008 114.482 111.2 117.146 119.128 94.5057Z" fill="white"/>
<path d="M157.92 80.2896C157.92 80.2896 156.744 95.6576 148.632 101.09C140.52 106.522 128.536 99.8657 128.536 99.8657C128.536 99.8657 129.712 84.5057 137.824 79.0656C145.936 73.6256 157.92 80.2896 157.92 80.2896Z" fill="white"/>
<path d="M128.536 99.7855C128.462 96.0218 129.003 92.2713 130.136 88.6815C130.693 86.8444 131.461 85.0779 132.424 83.4175C133.397 81.6956 134.673 80.1641 136.192 78.8975C137.757 77.6209 139.606 76.7401 141.584 76.3295C143.505 75.9214 145.484 75.8672 147.424 76.1695C151.18 76.7213 154.763 78.1162 157.904 80.2495C154.492 78.94 150.908 78.1317 147.264 77.8495C145.516 77.7325 143.761 77.8945 142.064 78.3295C140.407 78.7125 138.865 79.486 137.568 80.5855C136.223 81.679 135.078 82.9972 134.184 84.4815L133.816 85.0335L133.488 85.6175C133.28 86.0095 133.048 86.4175 132.848 86.7935C132.472 87.5935 132.048 88.3935 131.736 89.2495C130.372 92.6641 129.301 96.1889 128.536 99.7855Z" fill="#263238"/>
<path d="M179.56 70.9775C179.56 70.9775 191.496 80.7295 200.992 78.5775C210.488 76.4255 213.968 63.1855 213.968 63.1855C213.968 63.1855 202.04 53.4335 192.536 55.5855C183.032 57.7375 179.56 70.9775 179.56 70.9775Z" fill="white"/>
<path d="M213.968 63.1854C210.835 61.2665 207.546 59.6153 204.136 58.2494C203.336 57.9134 202.432 57.6574 201.584 57.3694C201.16 57.2334 200.72 57.1374 200.288 57.0174L199.648 56.8494L198.992 56.7374C197.301 56.3645 195.559 56.2833 193.84 56.4974C192.149 56.6851 190.527 57.2689 189.104 58.2014C187.619 59.1269 186.293 60.2857 185.176 61.6334C182.865 64.4593 180.979 67.6071 179.576 70.9774C180.195 67.2321 181.655 63.6761 183.848 60.5774C184.969 58.9647 186.373 57.5687 187.992 56.4574C189.66 55.3071 191.581 54.577 193.592 54.3294C195.554 54.1049 197.541 54.2377 199.456 54.7214C201.307 55.17 203.1 55.8304 204.8 56.6894C208.188 58.3431 211.285 60.5371 213.968 63.1854Z" fill="#263238"/>
<path d="M150.294 98.3135C154.943 97.1827 157.796 92.4968 156.665 87.8474C155.534 83.1979 150.848 80.3455 146.199 81.4764C141.549 82.6072 138.697 87.2931 139.828 91.9425C140.959 96.592 145.645 99.4444 150.294 98.3135Z" fill="#263238"/>
<path d="M141.288 90.4096C141.574 91.0715 142.05 91.6338 142.655 92.0255C143.26 92.4172 143.968 92.6207 144.689 92.6103C145.41 92.6 146.112 92.3762 146.706 91.9672C147.3 91.5583 147.759 90.9825 148.026 90.3127C148.293 89.6428 148.355 88.9089 148.205 88.2037C148.055 87.4984 147.699 86.8534 147.183 86.3502C146.666 85.8469 146.013 85.508 145.304 85.3762C144.595 85.2444 143.863 85.3256 143.2 85.6096C142.759 85.7986 142.359 86.0729 142.024 86.4166C141.689 86.7603 141.425 87.1668 141.248 87.6127C141.07 88.0586 140.982 88.5352 140.989 89.0152C140.996 89.4951 141.098 89.9689 141.288 90.4096Z" fill="white"/>
<path d="M200.925 73.991C202.703 69.5485 200.542 64.506 196.1 62.7282C191.657 60.9504 186.615 63.1106 184.837 67.5531C183.059 71.9956 185.22 77.0381 189.662 78.8159C194.104 80.5936 199.147 78.4334 200.925 73.991Z" fill="#263238"/>
<path d="M185.92 71.2816C186.206 71.9435 186.682 72.5058 187.287 72.8975C187.892 73.2892 188.6 73.4928 189.321 73.4824C190.042 73.472 190.744 73.2482 191.338 72.8393C191.932 72.4303 192.391 71.8546 192.658 71.1847C192.925 70.5149 192.987 69.781 192.837 69.0757C192.687 68.3705 192.331 67.7255 191.815 67.2222C191.298 66.719 190.644 66.3801 189.936 66.2482C189.227 66.1164 188.495 66.1976 187.832 66.4816C187.39 66.6698 186.99 66.9436 186.654 67.2872C186.319 67.6308 186.054 68.0374 185.877 68.4836C185.699 68.9298 185.611 69.4067 185.619 69.8869C185.626 70.3672 185.728 70.8412 185.92 71.2816Z" fill="white"/>
<path d="M149.52 90.4256C149.635 90.6892 149.826 90.9129 150.068 91.0684C150.31 91.2239 150.592 91.3042 150.88 91.2992C151.167 91.2943 151.447 91.2043 151.684 91.0406C151.92 90.8768 152.103 90.6468 152.209 90.3793C152.315 90.1119 152.339 89.8191 152.278 89.5379C152.218 89.2567 152.076 88.9997 151.869 88.7992C151.663 88.5988 151.402 88.4639 151.119 88.4117C150.837 88.3594 150.545 88.3921 150.28 88.5056C149.926 88.6603 149.647 88.949 149.504 89.3088C149.362 89.6686 149.368 90.0701 149.52 90.4256Z" fill="white"/>
<path d="M194.152 71.2975C194.262 71.5625 194.449 71.7888 194.688 71.948C194.927 72.1072 195.208 72.1922 195.495 72.1923C195.782 72.1923 196.063 72.1075 196.302 71.9484C196.541 71.7894 196.727 71.5632 196.838 71.2983C196.949 71.0334 196.979 70.7416 196.925 70.4597C196.87 70.1778 196.733 69.9183 196.532 69.7138C196.33 69.5094 196.073 69.3691 195.791 69.3107C195.51 69.2523 195.218 69.2783 194.952 69.3855C194.772 69.4566 194.609 69.5629 194.471 69.6981C194.333 69.8333 194.223 69.9948 194.149 70.173C194.074 70.3511 194.036 70.5424 194.037 70.7355C194.037 70.9286 194.076 71.1197 194.152 71.2975Z" fill="white"/>
<path d="M189.504 98.5856C189.064 98.8656 188.624 99.1536 188.168 99.3856C187.712 99.6176 187.208 99.8416 186.704 100.026C185.675 100.386 184.594 100.577 183.504 100.594C182.383 100.578 181.276 100.339 180.248 99.8896C179.191 99.4259 178.253 98.7283 177.504 97.8496L178.808 97.2896C178.924 98.4397 178.782 99.6013 178.392 100.69C178.008 101.742 177.418 102.708 176.656 103.53C175.895 104.309 175.011 104.957 174.04 105.45C173.56 105.68 173.069 105.886 172.568 106.066C172.056 106.218 171.544 106.346 171.04 106.466C171.496 106.194 171.952 105.946 172.4 105.666C172.848 105.386 173.264 105.13 173.664 104.81C174.456 104.221 175.169 103.533 175.784 102.762C176.361 101.998 176.799 101.14 177.08 100.226C177.219 99.7742 177.315 99.3108 177.368 98.8416C177.42 98.3951 177.42 97.9441 177.368 97.4976C177.35 97.3096 177.404 97.1218 177.52 96.9729C177.636 96.824 177.805 96.7254 177.992 96.6976C178.119 96.6812 178.248 96.6976 178.367 96.7452C178.486 96.7928 178.591 96.87 178.672 96.9696C178.963 97.313 179.287 97.6265 179.64 97.9056C180.02 98.1826 180.421 98.4287 180.84 98.6416C181.697 99.062 182.62 99.3326 183.568 99.4416C184.553 99.5303 185.546 99.4873 186.52 99.3136C187.024 99.2496 187.512 99.0896 188.016 98.9936C188.52 98.8976 189 98.7296 189.504 98.5856Z" fill="#263238"/>
<path d="M178.088 98.1696C177.946 98.1682 177.807 98.126 177.688 98.048C177.569 97.97 177.474 97.8595 177.416 97.7296L175.2 92.5215C175.126 92.3443 175.124 92.1447 175.196 91.9663C175.268 91.788 175.407 91.6453 175.584 91.5696C175.672 91.5302 175.767 91.5089 175.864 91.507C175.96 91.5051 176.056 91.5225 176.146 91.5583C176.235 91.5942 176.317 91.6476 176.385 91.7155C176.454 91.7834 176.508 91.8643 176.544 91.9535L178.776 97.1535C178.824 97.2646 178.844 97.3857 178.833 97.5061C178.822 97.6265 178.782 97.7424 178.715 97.8432C178.648 97.944 178.557 98.0266 178.451 98.0836C178.344 98.1406 178.225 98.1701 178.104 98.1696H178.088Z" fill="#263238"/>
<path d="M105.376 109.273C98.888 112.321 94.176 118.801 93 126.473C98.728 119.481 105.408 121.537 105.408 121.537L105.376 109.273Z" fill="#407BFF"/>
<path d="M106.04 128.177C104.907 130.755 104.421 133.569 104.623 136.377C104.825 139.185 105.71 141.901 107.2 144.289C107.136 137.409 112.048 135.361 112.048 135.361L106.04 128.177Z" fill="#407BFF"/>
<path d="M105.664 117.618C99.1281 122.498 95.3841 130.794 95.7761 139.626C100.576 130.514 108.496 131.29 108.496 131.29L105.664 117.618Z" fill="#407BFF"/>
<path d="M236.8 52.9616C243.48 50.3696 251.4 51.4576 257.792 55.8656C248.776 55.1936 245.656 61.4656 245.656 61.4656L236.8 52.9616Z" fill="#407BFF"/>
<path d="M247.888 66.1616C253.272 65.2896 259.144 65.9696 262.744 69.4736C258.325 69.471 254.047 71.0293 250.664 73.8736L247.888 66.1616Z" fill="#407BFF"/>
<path d="M246.088 65.3774C250.976 67.7774 255.344 71.7774 256.224 76.7294C252.635 74.1465 248.248 72.9166 243.84 73.2574L246.088 65.3774Z" fill="#407BFF"/>
<path d="M242.656 58.9295C250.696 57.5615 259.28 60.5775 265.408 66.9295C255.504 64.1215 250.6 70.3855 250.6 70.3855L242.656 58.9295Z" fill="#407BFF"/>
<path d="M152 51.1135C151.696 46.5855 153.88 42.6895 159.288 38.6655C158.152 45.1295 162.832 46.7455 162.832 46.7455L152 51.1135Z" fill="#407BFF"/>
<path d="M157.904 48.5936C158.976 43.3296 164.368 38.1936 172.216 34.8896C166.616 40.9216 171.128 44.6656 171.128 44.6656L157.904 48.5936Z" fill="#407BFF"/>
<path d="M113.272 143.13C113.201 143.127 113.132 143.105 113.072 143.066C113.032 143.039 112.998 143.005 112.972 142.965C112.946 142.925 112.927 142.881 112.918 142.834C112.91 142.787 112.91 142.739 112.92 142.692C112.93 142.645 112.949 142.601 112.976 142.562C134.184 110.866 172.776 98.3616 173.16 98.2416C173.253 98.2137 173.354 98.2231 173.44 98.2679C173.527 98.3126 173.593 98.3893 173.624 98.4816C173.652 98.5739 173.642 98.6734 173.597 98.7586C173.552 98.8439 173.476 98.9081 173.384 98.9376C173 99.0576 134.648 111.49 113.576 142.938C113.548 142.995 113.505 143.043 113.451 143.076C113.397 143.11 113.335 143.129 113.272 143.13Z" fill="#263238"/>
<path d="M119.112 163.097C119.073 163.105 119.032 163.105 118.992 163.097C118.9 163.066 118.824 163 118.781 162.913C118.737 162.826 118.73 162.726 118.76 162.633C133.4 119.873 171.72 101.346 172.104 101.17C172.19 101.128 172.289 101.123 172.379 101.154C172.469 101.186 172.543 101.252 172.584 101.337C172.606 101.38 172.619 101.427 172.622 101.475C172.625 101.523 172.619 101.571 172.603 101.617C172.588 101.662 172.563 101.704 172.531 101.74C172.499 101.776 172.46 101.805 172.416 101.825C172.032 102.009 134.016 120.409 119.456 162.873C119.427 162.94 119.379 162.997 119.317 163.037C119.256 163.076 119.185 163.098 119.112 163.097Z" fill="#263238"/>
<path d="M182.24 95.1136C182.176 95.115 182.113 95.0985 182.058 95.066C182.002 95.0335 181.957 94.9863 181.928 94.9296C181.902 94.889 181.885 94.8437 181.878 94.7963C181.87 94.7489 181.873 94.7005 181.885 94.654C181.897 94.6076 181.918 94.564 181.947 94.5261C181.977 94.4883 182.014 94.4568 182.056 94.4336C182.408 94.2256 217.664 74.1696 255.376 79.8816C255.423 79.8874 255.468 79.9028 255.51 79.9267C255.551 79.9506 255.587 79.9825 255.615 80.0207C255.643 80.0588 255.664 80.1023 255.675 80.1485C255.686 80.1947 255.688 80.2427 255.68 80.2896C255.662 80.3843 255.61 80.469 255.533 80.5268C255.456 80.5845 255.36 80.6113 255.264 80.6016C217.816 74.9216 182.776 94.8576 182.464 95.0656C182.396 95.1051 182.318 95.1219 182.24 95.1136Z" fill="#263238"/>
<path d="M257.904 97.8015C257.867 97.8098 257.829 97.8098 257.792 97.8015C213.152 83.4015 185.464 96.2015 185.184 96.3455C185.097 96.3869 184.997 96.392 184.907 96.3598C184.816 96.3275 184.742 96.2605 184.7 96.1735C184.659 96.0865 184.654 95.9867 184.686 95.8959C184.718 95.8051 184.785 95.7309 184.872 95.6895C185.144 95.5535 213.072 82.6015 258.016 97.1055C258.107 97.1383 258.182 97.2047 258.225 97.2911C258.268 97.3775 258.277 97.4772 258.248 97.5695C258.222 97.639 258.175 97.6985 258.113 97.7401C258.051 97.7816 257.979 97.8031 257.904 97.8015Z" fill="#263238"/>
<path d="M175.323 293.297C182.219 285.85 181.772 274.224 174.325 267.328C166.879 260.433 155.252 260.88 148.357 268.326C141.461 275.773 141.908 287.399 149.355 294.294C156.801 301.19 168.428 300.743 175.323 293.297Z" fill="#407BFF"/>
<path d="M213.4 299.986C204.296 299.986 201.08 296.538 197.976 293.21C196.948 292.047 195.821 290.977 194.608 290.01C189.952 286.458 182.608 284.834 178.904 286.538C178.731 286.566 178.554 286.538 178.399 286.456C178.244 286.374 178.12 286.243 178.047 286.084C177.973 285.925 177.954 285.747 177.992 285.576C178.029 285.405 178.122 285.251 178.256 285.138C182.496 283.194 190.408 284.866 195.544 288.778C196.828 289.808 198.021 290.945 199.112 292.178C202.12 295.418 204.968 298.474 213.4 298.474C215.458 298.528 217.492 298.024 219.286 297.016C221.081 296.007 222.569 294.532 223.592 292.746C224.437 291.344 224.894 289.742 224.915 288.106C224.936 286.469 224.521 284.857 223.712 283.434C221.8 280.354 217.864 278.786 212.616 279.034C212.499 279.071 212.375 279.081 212.254 279.062C212.133 279.044 212.017 278.998 211.917 278.928C211.816 278.858 211.733 278.765 211.673 278.658C211.614 278.551 211.58 278.431 211.575 278.308C211.569 278.186 211.591 278.064 211.64 277.951C211.689 277.839 211.764 277.739 211.857 277.66C211.951 277.581 212.062 277.524 212.181 277.495C212.3 277.465 212.424 277.463 212.544 277.49C218.376 277.226 222.808 279.042 225.024 282.618C225.976 284.275 226.471 286.157 226.457 288.068C226.443 289.98 225.921 291.854 224.944 293.498C223.784 295.52 222.099 297.191 220.067 298.333C218.034 299.475 215.731 300.046 213.4 299.986Z" fill="#407BFF"/>
<path d="M169.6 294.849C159.917 294.751 150.585 291.212 143.272 284.865C143.177 284.719 143.133 284.545 143.147 284.37C143.16 284.196 143.23 284.031 143.347 283.901C143.463 283.77 143.618 283.681 143.79 283.647C143.961 283.613 144.139 283.637 144.296 283.713C150.696 289.425 162.12 294.833 174.864 292.913C174.977 292.864 175.099 292.842 175.221 292.847C175.344 292.853 175.464 292.887 175.571 292.946C175.678 293.005 175.771 293.088 175.841 293.189C175.911 293.29 175.957 293.405 175.976 293.526C175.994 293.648 175.984 293.772 175.947 293.888C175.91 294.005 175.847 294.112 175.762 294.201C175.676 294.289 175.572 294.357 175.457 294.399C175.341 294.44 175.218 294.455 175.096 294.441C173.277 294.714 171.44 294.85 169.6 294.849Z" fill="#407BFF"/>
<path d="M167.584 297.138C158.152 297.138 150.096 293.426 143.064 285.858C142.927 285.71 142.851 285.515 142.851 285.314C142.851 285.112 142.927 284.918 143.064 284.77C143.212 284.63 143.408 284.552 143.612 284.552C143.816 284.552 144.012 284.63 144.16 284.77C151.944 293.154 161.04 296.586 171.96 295.29C172.074 295.242 172.198 295.221 172.321 295.229C172.445 295.237 172.565 295.274 172.672 295.336C172.779 295.398 172.87 295.485 172.938 295.588C173.006 295.691 173.049 295.809 173.063 295.932C173.078 296.055 173.064 296.179 173.023 296.296C172.981 296.412 172.913 296.518 172.824 296.604C172.735 296.689 172.627 296.753 172.509 296.791C172.391 296.828 172.266 296.837 172.144 296.818C170.632 297.016 169.109 297.123 167.584 297.138Z" fill="#407BFF"/>
<path d="M153.648 298.066C153.449 298.067 153.257 297.993 153.109 297.86C152.961 297.727 152.868 297.544 152.848 297.346C152.176 288.322 155.288 273.954 163.736 262.202C163.872 262.091 164.041 262.028 164.216 262.023C164.391 262.017 164.563 262.069 164.706 262.171C164.848 262.273 164.954 262.419 165.005 262.586C165.057 262.753 165.053 262.933 164.992 263.098C156.8 274.546 153.768 288.49 154.4 297.234C154.401 297.431 154.329 297.623 154.198 297.77C154.066 297.918 153.885 298.012 153.688 298.034L153.648 298.066Z" fill="#407BFF"/>
<path d="M145.976 290.905C145.829 290.904 145.685 290.863 145.56 290.785C145.393 290.671 145.275 290.498 145.231 290.301C145.186 290.103 145.218 289.896 145.32 289.721C148.008 285.473 157.992 271.225 173.64 266.225C173.834 266.171 174.042 266.192 174.221 266.284C174.401 266.376 174.539 266.532 174.608 266.721C174.663 266.916 174.642 267.123 174.55 267.303C174.458 267.482 174.301 267.62 174.112 267.689C158.96 272.537 149.24 286.409 146.624 290.545C146.553 290.653 146.457 290.742 146.344 290.805C146.231 290.868 146.105 290.902 145.976 290.905Z" fill="#407BFF"/>
<path d="M145.976 290.906C145.877 290.906 145.779 290.887 145.688 290.85C145.503 290.768 145.356 290.62 145.276 290.434C145.195 290.249 145.188 290.04 145.256 289.85C147.622 284.033 151.2 278.787 155.753 274.461C160.305 270.135 165.726 266.828 171.656 264.762C171.831 264.749 172.005 264.794 172.152 264.891C172.299 264.987 172.41 265.129 172.468 265.294C172.526 265.46 172.528 265.64 172.474 265.807C172.42 265.973 172.312 266.118 172.168 266.218C166.441 268.209 161.204 271.398 156.806 275.572C152.408 279.746 148.951 284.81 146.664 290.426C146.605 290.561 146.509 290.678 146.388 290.763C146.267 290.848 146.124 290.897 145.976 290.906Z" fill="#407BFF"/>
<path d="M151.368 296.722C151.174 296.723 150.985 296.655 150.838 296.528C150.691 296.402 150.595 296.226 150.568 296.034C148.632 279.362 154.104 269.826 160.312 262.01C160.442 261.856 160.626 261.758 160.827 261.734C161.027 261.71 161.229 261.763 161.392 261.882C161.547 262.013 161.647 262.198 161.671 262.4C161.695 262.602 161.641 262.806 161.52 262.97C155.52 270.53 150.232 279.77 152.104 295.858C152.12 296.06 152.059 296.261 151.933 296.42C151.806 296.579 151.625 296.684 151.424 296.714L151.368 296.722Z" fill="#407BFF"/>
<path d="M149.224 294.977C149.057 294.973 148.895 294.917 148.762 294.817C148.629 294.716 148.53 294.577 148.48 294.417C146.08 285.577 147.864 271.753 157.656 262.273C157.804 262.136 157.998 262.06 158.2 262.06C158.402 262.06 158.596 262.136 158.744 262.273C158.883 262.422 158.961 262.618 158.961 262.821C158.961 263.025 158.883 263.221 158.744 263.369C149.824 272.001 147.584 285.305 149.984 293.985C150.032 294.183 150.003 294.39 149.904 294.567C149.804 294.744 149.641 294.876 149.448 294.937L149.224 294.977Z" fill="#407BFF"/>
<path d="M180 284.178C179.84 284.176 179.684 284.125 179.552 284.034C168.112 275.802 154.16 272.77 145.416 273.426C145.242 273.393 145.084 273.304 144.966 273.173C144.848 273.041 144.777 272.873 144.764 272.697C144.751 272.52 144.797 272.345 144.895 272.197C144.993 272.05 145.137 271.939 145.304 271.882C154.328 271.218 168.696 274.322 180.456 282.778C180.574 282.881 180.66 283.016 180.701 283.168C180.743 283.319 180.74 283.479 180.691 283.628C180.642 283.778 180.551 283.909 180.428 284.007C180.305 284.105 180.156 284.164 180 284.178Z" fill="#407BFF"/>
<path d="M180.16 282.042C180.053 282.044 179.946 282.022 179.848 281.978C169.592 277.426 154.072 276.826 143.752 280.57C143.652 280.641 143.536 280.689 143.414 280.709C143.293 280.729 143.168 280.72 143.05 280.683C142.932 280.647 142.824 280.584 142.735 280.499C142.646 280.414 142.577 280.309 142.535 280.193C142.492 280.077 142.478 279.953 142.491 279.831C142.505 279.708 142.547 279.59 142.614 279.486C142.68 279.383 142.77 279.296 142.876 279.232C142.982 279.169 143.101 279.131 143.224 279.122C153.88 275.25 169.888 275.874 180.472 280.57C180.654 280.658 180.795 280.812 180.868 281.001C180.94 281.189 180.939 281.398 180.864 281.586C180.8 281.719 180.701 281.833 180.577 281.913C180.452 281.994 180.308 282.038 180.16 282.042Z" fill="#407BFF"/>
<path d="M180.128 279.882C180.021 279.88 179.916 279.858 179.819 279.815C179.721 279.772 179.633 279.711 179.56 279.634C171.952 271.362 162.096 268.434 147.56 270.106C147.446 270.154 147.322 270.174 147.199 270.166C147.075 270.158 146.955 270.122 146.848 270.059C146.741 269.997 146.65 269.911 146.582 269.807C146.514 269.704 146.471 269.586 146.456 269.464C146.442 269.341 146.456 269.216 146.497 269.099C146.539 268.983 146.607 268.878 146.696 268.792C146.785 268.706 146.893 268.642 147.011 268.605C147.129 268.568 147.254 268.558 147.376 268.578C162.224 266.85 172.8 270.034 180.664 278.594C180.752 278.708 180.808 278.843 180.826 278.987C180.844 279.13 180.822 279.275 180.764 279.407C180.706 279.539 180.613 279.653 180.495 279.736C180.378 279.82 180.24 279.87 180.096 279.882H180.128Z" fill="#407BFF"/>
<path d="M179.552 276.745C179.348 276.74 179.153 276.657 179.008 276.513C169.496 267.025 156.08 265.657 150.008 267.713C149.832 267.725 149.658 267.678 149.511 267.58C149.365 267.482 149.255 267.339 149.198 267.172C149.142 267.005 149.142 266.824 149.198 266.657C149.255 266.491 149.365 266.347 149.512 266.249C155.952 264.065 170.128 265.449 180.096 275.417C180.233 275.565 180.31 275.76 180.31 275.961C180.31 276.163 180.233 276.358 180.096 276.505C179.952 276.652 179.758 276.738 179.552 276.745Z" fill="#407BFF"/>
<path d="M176 293.338C175.929 293.349 175.856 293.349 175.784 293.338C157.384 287.89 143.856 275.522 143.728 275.394C143.636 275.245 143.595 275.071 143.611 274.898C143.628 274.724 143.7 274.56 143.818 274.432C143.936 274.303 144.092 274.216 144.264 274.185C144.435 274.154 144.612 274.179 144.768 274.258C144.904 274.386 158.184 286.514 176.224 291.858C176.378 291.931 176.504 292.053 176.585 292.204C176.665 292.354 176.695 292.527 176.669 292.696C176.644 292.865 176.566 293.022 176.445 293.143C176.325 293.264 176.169 293.343 176 293.37V293.338Z" fill="#407BFF"/>
<path d="M176.368 292.866C176.263 292.864 176.16 292.843 176.064 292.802C164.931 287.83 154.264 281.873 144.192 275.002C144.075 274.961 143.969 274.893 143.883 274.804C143.797 274.716 143.732 274.608 143.694 274.49C143.657 274.372 143.647 274.247 143.666 274.125C143.684 274.002 143.732 273.886 143.803 273.785C143.875 273.684 143.969 273.6 144.078 273.542C144.187 273.483 144.308 273.451 144.432 273.447C144.556 273.443 144.679 273.468 144.791 273.52C144.904 273.572 145.002 273.649 145.08 273.746C155.063 280.556 165.636 286.46 176.672 291.386C176.815 291.471 176.927 291.598 176.994 291.75C177.061 291.902 177.079 292.071 177.046 292.234C177.012 292.396 176.929 292.545 176.808 292.658C176.686 292.771 176.533 292.844 176.368 292.866Z" fill="#407BFF"/>
<path d="M177.048 291.914C176.922 291.916 176.798 291.886 176.688 291.826C160.952 283.362 144.456 275.146 144.296 275.066C144.165 274.949 144.076 274.793 144.042 274.622C144.009 274.45 144.032 274.272 144.109 274.115C144.186 273.958 144.313 273.83 144.47 273.752C144.626 273.674 144.804 273.649 144.976 273.682C145.144 273.762 161.664 281.994 177.416 290.482C177.548 290.575 177.649 290.706 177.705 290.858C177.761 291.01 177.77 291.175 177.73 291.332C177.69 291.489 177.603 291.63 177.482 291.737C177.36 291.843 177.209 291.911 177.048 291.93V291.914Z" fill="#407BFF"/>
<path d="M177.6 291.065C177.429 291.069 177.262 291.012 177.128 290.905C162.84 279.705 144.88 274.505 144.696 274.457C144.544 274.367 144.426 274.229 144.361 274.065C144.296 273.901 144.286 273.72 144.335 273.55C144.383 273.38 144.487 273.231 144.629 273.126C144.771 273.021 144.944 272.966 145.12 272.969C145.304 273.025 163.52 278.289 178.08 289.689C178.234 289.82 178.332 290.004 178.356 290.204C178.38 290.405 178.327 290.606 178.208 290.769C178.137 290.863 178.045 290.938 177.939 290.99C177.834 291.041 177.718 291.067 177.6 291.065Z" fill="#407BFF"/>
<path d="M179.072 287.962C178.895 287.961 178.724 287.902 178.584 287.794C165.496 277.042 144.984 274.506 144.808 274.482C144.644 274.416 144.506 274.299 144.415 274.147C144.325 273.995 144.287 273.818 144.308 273.643C144.329 273.467 144.408 273.304 144.532 273.178C144.655 273.052 144.817 272.97 144.992 272.946C145.2 272.946 166.12 275.562 179.568 286.602C179.718 286.736 179.812 286.921 179.831 287.121C179.85 287.321 179.793 287.521 179.672 287.682C179.598 287.768 179.506 287.838 179.402 287.887C179.299 287.935 179.186 287.96 179.072 287.962Z" fill="#407BFF"/>
<path d="M154.952 298.69C154.798 298.673 154.652 298.612 154.532 298.515C154.412 298.417 154.323 298.287 154.276 298.139C154.228 297.992 154.225 297.834 154.265 297.684C154.306 297.535 154.389 297.401 154.504 297.298C169.088 286.746 177.416 272.106 177.496 271.962C177.527 271.842 177.584 271.732 177.664 271.638C177.744 271.545 177.844 271.471 177.957 271.423C178.071 271.375 178.193 271.353 178.316 271.36C178.439 271.367 178.558 271.402 178.665 271.463C178.772 271.523 178.864 271.607 178.933 271.709C179.002 271.811 179.047 271.927 179.064 272.049C179.081 272.171 179.069 272.295 179.031 272.411C178.992 272.528 178.927 272.634 178.84 272.722C178.76 272.866 170.264 287.802 155.408 298.546C155.274 298.639 155.115 298.689 154.952 298.69Z" fill="#407BFF"/>
<g opacity="0.3">
<path d="M169.6 294.849C159.917 294.751 150.585 291.212 143.272 284.865C143.177 284.719 143.133 284.545 143.147 284.37C143.16 284.196 143.23 284.031 143.347 283.901C143.463 283.77 143.618 283.681 143.79 283.647C143.961 283.613 144.139 283.637 144.296 283.713C150.696 289.425 162.12 294.833 174.864 292.913C174.977 292.864 175.099 292.842 175.221 292.847C175.344 292.853 175.464 292.887 175.571 292.946C175.678 293.005 175.771 293.088 175.841 293.189C175.911 293.29 175.957 293.405 175.976 293.526C175.994 293.648 175.984 293.772 175.947 293.888C175.91 294.005 175.847 294.112 175.762 294.201C175.676 294.289 175.572 294.357 175.457 294.399C175.341 294.44 175.218 294.455 175.096 294.441C173.277 294.714 171.44 294.85 169.6 294.849Z" fill="black"/>
<path d="M167.584 297.137C158.152 297.137 150.096 293.425 143.064 285.857C142.927 285.709 142.851 285.515 142.851 285.313C142.851 285.112 142.927 284.917 143.064 284.769C143.212 284.63 143.408 284.552 143.612 284.552C143.816 284.552 144.012 284.63 144.16 284.769C151.944 293.153 161.04 296.585 171.96 295.289C172.074 295.242 172.198 295.221 172.321 295.229C172.445 295.237 172.565 295.274 172.672 295.336C172.779 295.398 172.87 295.484 172.938 295.588C173.006 295.691 173.049 295.809 173.063 295.932C173.078 296.054 173.064 296.179 173.023 296.296C172.981 296.412 172.913 296.518 172.824 296.603C172.735 296.689 172.627 296.753 172.509 296.79C172.391 296.828 172.266 296.837 172.144 296.817C170.632 297.016 169.109 297.123 167.584 297.137Z" fill="black"/>
<path d="M153.648 298.065C153.449 298.066 153.257 297.993 153.109 297.86C152.961 297.727 152.868 297.543 152.848 297.345C152.176 288.321 155.288 273.953 163.736 262.201C163.872 262.091 164.041 262.028 164.216 262.022C164.391 262.017 164.563 262.069 164.706 262.171C164.848 262.272 164.954 262.418 165.005 262.586C165.057 262.753 165.053 262.933 164.992 263.097C156.8 274.545 153.768 288.489 154.4 297.233C154.401 297.431 154.329 297.622 154.198 297.77C154.066 297.918 153.885 298.012 153.688 298.033L153.648 298.065Z" fill="black"/>
<path d="M145.976 290.905C145.829 290.904 145.685 290.863 145.56 290.785C145.393 290.671 145.275 290.498 145.231 290.301C145.186 290.103 145.218 289.896 145.32 289.721C148.008 285.473 157.992 271.225 173.64 266.225C173.834 266.171 174.042 266.192 174.221 266.284C174.401 266.376 174.539 266.532 174.608 266.721C174.663 266.916 174.642 267.123 174.55 267.303C174.458 267.482 174.301 267.62 174.112 267.689C158.96 272.537 149.24 286.409 146.624 290.545C146.553 290.653 146.457 290.742 146.344 290.805C146.231 290.868 146.105 290.902 145.976 290.905Z" fill="black"/>
<path d="M145.976 290.905C145.877 290.906 145.779 290.887 145.688 290.849C145.503 290.768 145.356 290.62 145.276 290.434C145.195 290.249 145.188 290.04 145.256 289.849C147.622 284.032 151.2 278.786 155.753 274.46C160.305 270.135 165.726 266.828 171.656 264.761C171.831 264.749 172.005 264.794 172.152 264.89C172.299 264.987 172.41 265.128 172.468 265.294C172.526 265.459 172.528 265.639 172.474 265.806C172.42 265.973 172.312 266.118 172.168 266.217C166.441 268.208 161.204 271.397 156.806 275.572C152.408 279.746 148.951 284.81 146.664 290.425C146.605 290.561 146.509 290.678 146.388 290.763C146.267 290.847 146.124 290.897 145.976 290.905Z" fill="black"/>
<path d="M151.368 296.722C151.174 296.723 150.985 296.655 150.838 296.528C150.691 296.402 150.595 296.226 150.568 296.034C148.632 279.362 154.104 269.826 160.312 262.01C160.442 261.856 160.626 261.758 160.827 261.734C161.027 261.71 161.229 261.763 161.392 261.882C161.547 262.013 161.647 262.198 161.671 262.4C161.695 262.602 161.641 262.806 161.52 262.97C155.52 270.53 150.232 279.77 152.104 295.858C152.12 296.06 152.059 296.261 151.933 296.42C151.806 296.579 151.625 296.684 151.424 296.714L151.368 296.722Z" fill="black"/>
<path d="M149.224 294.977C149.057 294.973 148.895 294.917 148.762 294.817C148.629 294.716 148.53 294.577 148.48 294.417C146.08 285.577 147.864 271.753 157.656 262.273C157.804 262.136 157.998 262.06 158.2 262.06C158.402 262.06 158.596 262.136 158.744 262.273C158.883 262.422 158.961 262.618 158.961 262.821C158.961 263.025 158.883 263.221 158.744 263.369C149.824 272.001 147.584 285.305 149.984 293.985C150.032 294.183 150.003 294.39 149.904 294.567C149.804 294.744 149.641 294.876 149.448 294.937L149.224 294.977Z" fill="black"/>
<path d="M180 284.178C179.84 284.176 179.684 284.125 179.552 284.034C168.112 275.802 154.16 272.77 145.416 273.426C145.242 273.393 145.084 273.304 144.966 273.173C144.848 273.041 144.777 272.873 144.764 272.697C144.751 272.52 144.797 272.345 144.895 272.197C144.993 272.05 145.137 271.939 145.304 271.882C154.328 271.218 168.696 274.322 180.456 282.778C180.574 282.881 180.66 283.016 180.701 283.168C180.743 283.319 180.74 283.479 180.691 283.628C180.642 283.778 180.551 283.909 180.428 284.007C180.305 284.105 180.156 284.164 180 284.178Z" fill="black"/>
<path d="M180.16 282.042C180.053 282.044 179.946 282.022 179.848 281.978C169.592 277.426 154.072 276.826 143.752 280.57C143.652 280.641 143.536 280.689 143.414 280.709C143.293 280.729 143.168 280.72 143.05 280.683C142.932 280.647 142.824 280.584 142.735 280.499C142.646 280.414 142.577 280.309 142.535 280.193C142.492 280.077 142.478 279.953 142.491 279.831C142.505 279.708 142.547 279.59 142.614 279.486C142.68 279.383 142.77 279.296 142.876 279.232C142.982 279.169 143.101 279.131 143.224 279.122C153.88 275.25 169.888 275.874 180.472 280.57C180.654 280.658 180.795 280.812 180.868 281.001C180.94 281.189 180.939 281.398 180.864 281.586C180.8 281.719 180.701 281.833 180.577 281.913C180.452 281.994 180.308 282.038 180.16 282.042Z" fill="black"/>
<path d="M180.128 279.881C180.021 279.88 179.916 279.857 179.819 279.815C179.721 279.772 179.633 279.71 179.56 279.633C171.952 271.361 162.096 268.433 147.56 270.105C147.446 270.153 147.322 270.174 147.199 270.166C147.075 270.158 146.955 270.121 146.848 270.059C146.741 269.997 146.65 269.911 146.582 269.807C146.514 269.704 146.471 269.586 146.456 269.463C146.442 269.34 146.456 269.216 146.497 269.099C146.539 268.983 146.607 268.877 146.696 268.791C146.785 268.706 146.893 268.642 147.011 268.605C147.129 268.567 147.254 268.558 147.376 268.577C162.224 266.849 172.8 270.033 180.664 278.593C180.752 278.707 180.808 278.843 180.826 278.986C180.844 279.13 180.822 279.275 180.764 279.407C180.706 279.539 180.613 279.653 180.495 279.736C180.378 279.82 180.24 279.87 180.096 279.881H180.128Z" fill="black"/>
<path d="M179.552 276.745C179.348 276.74 179.153 276.657 179.008 276.513C169.496 267.025 156.08 265.657 150.008 267.713C149.832 267.725 149.658 267.678 149.511 267.58C149.365 267.482 149.255 267.339 149.198 267.172C149.142 267.005 149.142 266.824 149.198 266.657C149.255 266.491 149.365 266.347 149.512 266.249C155.952 264.065 170.128 265.449 180.096 275.417C180.233 275.565 180.31 275.76 180.31 275.961C180.31 276.163 180.233 276.358 180.096 276.505C179.952 276.652 179.758 276.738 179.552 276.745Z" fill="black"/>
<path d="M176 293.338C175.929 293.349 175.856 293.349 175.784 293.338C157.384 287.89 143.856 275.522 143.728 275.394C143.636 275.245 143.595 275.071 143.611 274.898C143.628 274.724 143.7 274.56 143.818 274.432C143.936 274.303 144.092 274.216 144.264 274.185C144.435 274.154 144.612 274.179 144.768 274.258C144.904 274.386 158.184 286.514 176.224 291.858C176.378 291.931 176.504 292.053 176.585 292.204C176.665 292.354 176.695 292.527 176.669 292.696C176.644 292.865 176.566 293.022 176.445 293.143C176.325 293.264 176.169 293.343 176 293.37V293.338Z" fill="black"/>
<path d="M176.368 292.865C176.263 292.864 176.16 292.842 176.064 292.801C164.931 287.83 154.264 281.873 144.192 275.001C144.075 274.96 143.969 274.893 143.883 274.804C143.797 274.715 143.732 274.608 143.694 274.49C143.657 274.372 143.647 274.247 143.666 274.124C143.684 274.002 143.732 273.886 143.803 273.784C143.875 273.683 143.969 273.6 144.078 273.542C144.187 273.483 144.308 273.45 144.432 273.447C144.556 273.443 144.679 273.468 144.791 273.52C144.904 273.572 145.002 273.649 145.08 273.745C155.063 280.556 165.636 286.459 176.672 291.385C176.815 291.47 176.927 291.598 176.994 291.75C177.061 291.902 177.079 292.071 177.046 292.233C177.012 292.396 176.929 292.544 176.808 292.658C176.686 292.771 176.533 292.843 176.368 292.865Z" fill="black"/>
<path d="M177.048 291.914C176.922 291.916 176.798 291.886 176.688 291.826C160.952 283.362 144.456 275.146 144.296 275.066C144.165 274.949 144.076 274.793 144.042 274.622C144.009 274.45 144.032 274.272 144.109 274.115C144.186 273.958 144.313 273.83 144.47 273.752C144.626 273.674 144.804 273.649 144.976 273.682C145.144 273.762 161.664 281.994 177.416 290.482C177.548 290.575 177.649 290.706 177.705 290.858C177.761 291.01 177.77 291.175 177.73 291.332C177.69 291.489 177.603 291.63 177.482 291.737C177.36 291.843 177.209 291.911 177.048 291.93V291.914Z" fill="black"/>
<path d="M177.6 291.065C177.429 291.069 177.262 291.012 177.128 290.905C162.84 279.705 144.88 274.505 144.696 274.457C144.544 274.367 144.426 274.229 144.361 274.065C144.296 273.901 144.286 273.72 144.335 273.55C144.383 273.38 144.487 273.231 144.629 273.126C144.771 273.021 144.944 272.966 145.12 272.969C145.304 273.025 163.52 278.289 178.08 289.689C178.234 289.82 178.332 290.004 178.356 290.204C178.38 290.405 178.327 290.606 178.208 290.769C178.137 290.863 178.045 290.938 177.939 290.99C177.834 291.041 177.718 291.067 177.6 291.065Z" fill="black"/>
<path d="M179.072 287.962C178.895 287.961 178.724 287.902 178.584 287.794C165.496 277.042 144.984 274.506 144.808 274.482C144.644 274.416 144.506 274.299 144.415 274.147C144.325 273.995 144.287 273.818 144.308 273.643C144.329 273.467 144.408 273.304 144.532 273.178C144.655 273.052 144.817 272.97 144.992 272.946C145.2 272.946 166.12 275.562 179.568 286.602C179.718 286.736 179.812 286.921 179.831 287.121C179.85 287.321 179.793 287.521 179.672 287.682C179.598 287.768 179.506 287.838 179.402 287.887C179.299 287.935 179.186 287.96 179.072 287.962Z" fill="black"/>
<path d="M154.952 298.69C154.798 298.673 154.652 298.612 154.532 298.515C154.412 298.417 154.323 298.287 154.276 298.139C154.228 297.992 154.225 297.834 154.265 297.684C154.306 297.535 154.389 297.401 154.504 297.298C169.088 286.746 177.416 272.106 177.496 271.962C177.527 271.842 177.584 271.732 177.664 271.638C177.744 271.545 177.844 271.471 177.957 271.423C178.071 271.375 178.193 271.353 178.316 271.36C178.439 271.367 178.558 271.402 178.665 271.463C178.772 271.523 178.864 271.607 178.933 271.709C179.002 271.811 179.047 271.927 179.064 272.049C179.081 272.171 179.069 272.295 179.031 272.411C178.992 272.528 178.927 272.634 178.84 272.722C178.76 272.866 170.264 287.802 155.408 298.546C155.274 298.639 155.115 298.689 154.952 298.69Z" fill="black"/>
</g>
</svg>
