<svg width="14" height="14" viewBox="0 0 14 14" fill="none" xmlns="http://www.w3.org/2000/svg">
<path d="M4.10154 11.0157V12.0725C4.10154 12.1641 4.20682 12.2147 4.27791 12.1587L10.4412 7.3448C10.4936 7.30408 10.5359 7.25193 10.5651 7.19234C10.5942 7.13275 10.6094 7.06729 10.6094 7.00095C10.6094 6.93461 10.5942 6.86915 10.5651 6.80956C10.5359 6.74997 10.4936 6.69783 10.4412 6.6571L4.27791 1.84324C4.20545 1.78718 4.10154 1.83777 4.10154 1.92937V2.98621C4.10154 3.0532 4.13299 3.11746 4.18494 3.15847L9.10682 7.00027L4.18494 10.8434C4.13299 10.8844 4.10154 10.9487 4.10154 11.0157Z" fill="#242D35"/>
</svg>
